<svg xmlns="http://www.w3.org/2000/svg" width="41.77" height="30.55" viewBox="0 0 41.77 30.55">
  <g id="facetime-button" transform="translate(1.25 -71.84)">
    <path id="Path_2287" data-name="Path 2287" d="M38.415,73.9a1.526,1.526,0,0,0-.548-.11,1.3,1.3,0,0,0-.986.416l-8.831,8.81V79.4a6.322,6.322,0,0,0-6.311-6.311H6.311a6.08,6.08,0,0,0-4.46,1.852A6.08,6.08,0,0,0,0,79.4V94.829a6.079,6.079,0,0,0,1.852,4.459,6.08,6.08,0,0,0,4.46,1.852H21.739a6.322,6.322,0,0,0,6.311-6.311V91.191l8.831,8.832a1.3,1.3,0,0,0,.986.416,1.529,1.529,0,0,0,.548-.109,1.31,1.31,0,0,0,.855-1.293V75.194A1.311,1.311,0,0,0,38.415,73.9Z" fill="none" stroke="#fff" stroke-width="2.5"/>
  </g>
</svg>
