<svg xmlns="http://www.w3.org/2000/svg" width="26.385" height="44.638" viewBox="0 0 26.385 44.638">
  <g id="Group_26" data-name="Group 26" transform="translate(0 1)">
    <g id="Group_24" data-name="Group 24" transform="translate(0 0.5)">
      <path id="Line" d="M1,.5V3.386" transform="translate(12.192 -0.5)" fill="none" stroke="#c0c5d8" stroke-linecap="square" stroke-miterlimit="10" stroke-width="3"/>
      <g id="Group_23" data-name="Group 23" transform="translate(0 2.886)">
        <g id="Rectangle" fill="none" stroke="#c0c5d8" stroke-miterlimit="10" stroke-width="3">
          <path d="M13.192,0h0A13.192,13.192,0,0,1,26.385,13.192V28.034a0,0,0,0,1,0,0H0a0,0,0,0,1,0,0V13.192A13.192,13.192,0,0,1,13.192,0Z" stroke="none"/>
          <path d="M13.192,1.5h0A11.692,11.692,0,0,1,24.885,13.192V26.356a.178.178,0,0,1-.178.178H1.678a.178.178,0,0,1-.178-.178V13.192A11.692,11.692,0,0,1,13.192,1.5Z" fill="none"/>
        </g>
        <circle id="Oval" cx="3.298" cy="3.298" r="3.298" transform="translate(9.894 32.157)" fill="none" stroke="#c0c5d8" stroke-miterlimit="10" stroke-width="3"/>
      </g>
    </g>
  </g>
</svg>
