<svg xmlns="http://www.w3.org/2000/svg" width="763.315" height="765.769" viewBox="0 0 763.315 765.769">
  <g id="Group_9712" data-name="Group 9712" transform="translate(19.478 -180.96)">
    <path id="Path_2" data-name="Path 2" d="M17.964,68.469S67.457-22.659,187.733,7.6C292,33.829,314.221,137.752,524.3,170.228c212.1,0,227.86,201.689,181.072,366.223S343.389,793.023,222.742,680.764,21.571,399.854,5.718,365.131,17.964,68.469,17.964,68.469Z" transform="translate(-20.422 217.57) rotate(-3)" fill="#3f3d56"/>
    <circle id="Ellipse_47" data-name="Ellipse 47" cx="61.035" cy="61.035" r="61.035" transform="translate(166.871 482.718)" fill="#18a4e0"/>
    <path id="Path_185" data-name="Path 185" d="M450.972,681C277.936,681,137.6,727.66,137.01,785.293H764.935C764.347,727.66,624.009,681,450.972,681Z" transform="translate(-82.003 137.887)" fill="#cab19a"/>
    <g id="Group_36" data-name="Group 36" transform="translate(252.685 865.603)" opacity="0.1">
      <ellipse id="Ellipse_48" data-name="Ellipse 48" cx="58.143" cy="16.151" rx="58.143" ry="16.151"/>
    </g>
    <g id="Group_37" data-name="Group 37" transform="translate(378.418 836.531)" opacity="0.1">
      <ellipse id="Ellipse_49" data-name="Ellipse 49" cx="58.143" cy="16.151" rx="58.143" ry="16.151"/>
    </g>
    <g id="Group_38" data-name="Group 38" transform="translate(258.779 867.699)" opacity="0.1">
      <ellipse id="Ellipse_50" data-name="Ellipse 50" cx="52.5" cy="14" rx="52.5" ry="14" transform="translate(-0.279 -0.199)" fill="#fcc497"/>
    </g>
    <g id="Group_39" data-name="Group 39" transform="translate(384.453 838.336)" opacity="0.1">
      <ellipse id="Ellipse_51" data-name="Ellipse 51" cx="52" cy="14.5" rx="52" ry="14.5" transform="translate(0.047 0.164)" fill="#fcc497"/>
    </g>
    <ellipse id="Ellipse_52" data-name="Ellipse 52" cx="5" cy="5.5" rx="5" ry="5.5" transform="translate(65.5 422.5)" fill="#f2f2f2"/>
    <ellipse id="Ellipse_53" data-name="Ellipse 53" cx="5.5" cy="5" rx="5.5" ry="5" transform="translate(587.5 783.5)" fill="#f2f2f2"/>
    <ellipse id="Ellipse_54" data-name="Ellipse 54" cx="5" cy="5.5" rx="5" ry="5.5" transform="translate(110.5 320.5)" fill="#f2f2f2"/>
    <circle id="Ellipse_55" data-name="Ellipse 55" cx="3" cy="3" r="3" transform="translate(601.5 591.5)" fill="#ff6584"/>
    <circle id="Ellipse_56" data-name="Ellipse 56" cx="3" cy="3" r="3" transform="translate(163.5 737.5)" fill="#ff6584"/>
    <path id="Path_186" data-name="Path 186" d="M92.907,580.824H91.583V579.5h-.259v1.324H90v.259h1.324v1.324h.259v-1.324h1.324Z" transform="translate(30.41 220.49)" fill="#f2f2f2"/>
    <path id="Path_187" data-name="Path 187" d="M677.907,432.824h-1.324V431.5h-.259v1.324H675v.259h1.324v1.324h.259v-1.324h1.324Z" transform="translate(-129.422 260.927)" fill="#f2f2f2"/>
    <path id="Path_188" data-name="Path 188" d="M828.907,402.824h-1.324V401.5h-.259v1.324H826v.259h1.324v1.324h.259v-1.324h1.324Z" transform="translate(-170.678 269.123)" fill="#f2f2f2"/>
    <path id="Path_189" data-name="Path 189" d="M503.907,482.824h-1.324V481.5h-.259v1.324H501v.259h1.324v1.324h.259v-1.324h1.324Z" transform="translate(-81.882 247.266)" fill="#f2f2f2"/>
    <path id="Path_190" data-name="Path 190" d="M784.907,492.824h-1.324V491.5h-.259v1.324H782v.259h1.324v1.324h.259v-1.324h1.324Z" transform="translate(-158.656 244.533)" fill="#f2f2f2"/>
    <path id="Path_191" data-name="Path 191" d="M445.907,535.824h-1.324V534.5h-.259v1.324H443v.259h1.324v1.324h.259v-1.324h1.324Z" transform="translate(-66.036 232.785)" fill="#f2f2f2"/>
    <path id="Path_192" data-name="Path 192" d="M573.907,537.824h-1.324V536.5h-.259v1.324H571v.259h1.324v1.324h.259v-1.324h1.324Z" transform="translate(-101.008 232.239)" fill="#f2f2f2"/>
    <path id="Path_193" data-name="Path 193" d="M94.907,367.824H93.583V366.5h-.259v1.324H92v.259h1.324v1.324h.259v-1.324h1.324Z" transform="translate(29.864 278.686)" fill="#f2f2f2"/>
    <path id="Path_203" data-name="Path 203" d="M479.907,351.824h-1.324V350.5h-.259v1.324H477v.259h1.324v1.324h.259v-1.324h1.324Z" transform="translate(-75.325 283.057)" fill="#f2f2f2"/>
    <path id="Path_204" data-name="Path 204" d="M643.907,295.824h-1.324V294.5h-.259v1.324H641v.259h1.324v1.324h.259v-1.324h1.324Z" transform="translate(-120.133 298.357)" fill="#f2f2f2"/>
    <path id="Path_205" data-name="Path 205" d="M625.907,312.824h-1.324V311.5h-.259v1.324H623v.259h1.324v1.324h.259v-1.324h1.324Z" transform="translate(-115.215 293.713)" fill="#f2f2f2"/>
    <circle id="Ellipse_59" data-name="Ellipse 59" cx="2.5" cy="2.5" r="2.5" transform="translate(396.5 454.5)" fill="#f2f2f2"/>
    <path id="Path_206" data-name="Path 206" d="M453.139,290.042c0,202.8-25.5,202.8-56.95,202.8-16.259,0-30.927,0-41.3-28.014-2.982-8.051-5.617-18.433-7.825-31.8-4.973-30.04-7.825-75.183-7.825-142.993a389.713,389.713,0,0,1,7.825-75.514c2.278-11.494,4.939-22.589,7.825-33.17,3.53-12.955,7.4-25.136,11.3-36.283,2.617-7.495,5.26-14.529,7.825-21.024C385.868,94.072,396.189,75.5,396.189,75.5S453.139,178.037,453.139,290.042Z" transform="translate(-137.255 303.32)" fill="#f2f2f2"/>
    <g id="Group_41" data-name="Group 41" transform="translate(228.937 427.371)" opacity="0.1">
      <path id="Path_207" data-name="Path 207" d="M384.15,142.3V495.882h-7.825V163.327C378.942,155.832,381.585,148.8,384.15,142.3Z" transform="translate(-376.325 -142.303)"/>
    </g>
    <circle id="Ellipse_60" data-name="Ellipse 60" cx="31.301" cy="31.301" r="31.301" transform="translate(225.894 487.504)" fill="#3f3d56"/>
    <path id="Path_208" data-name="Path 208" d="M457.665,614.921c-6.96-17.131-15.9-20.087-21.737-19.83v-2.776H344.633v2.776c-5.841-.257-14.777,2.7-21.737,19.83-11.3,27.823,6.956,75.644,6.956,75.644s-9.758-66.695,22.645-67.134a38.346,38.346,0,0,0,10.165,9.223v17.938h52.328v-16.3a38.306,38.306,0,0,0,13.072-10.856c32.4.439,22.645,67.134,22.645,67.134S468.968,642.744,457.665,614.921Z" transform="translate(-131.782 162.117)" fill="#fcc497"/>
    <circle id="Ellipse_61" data-name="Ellipse 61" cx="24.345" cy="24.345" r="24.345" transform="translate(232.85 494.46)" fill="#fcc497"/>
    <path id="Path_209" data-name="Path 209" d="M982.464,276.46H981.01a59.658,59.658,0,0,0,59.589,59.262v-1.454a58.2,58.2,0,0,1-58.135-57.808Z" transform="translate(-349.599 121.414)" fill="#fcc497"/>
    <path id="Path_210" data-name="Path 210" d="M945.464,276.46H944.01a86.571,86.571,0,0,0,86.48,86.153v-1.454a85.123,85.123,0,0,1-85.026-84.7Z" transform="translate(-339.49 121.414)" fill="#fcc497"/>
    <path id="Path_211" data-name="Path 211" d="M907.453,276.46H906a114.234,114.234,0,0,0,114.1,113.77v-1.454A112.776,112.776,0,0,1,907.453,276.46Z" transform="translate(-329.104 121.414)" fill="#fcc497"/>
    <g id="Group_42" data-name="Group 42" transform="translate(1926.928 2846.304)">
      <path id="Path_218" data-name="Path 218" d="M803.811,691.141c-33.106-5.892-69.309-4.913-107.284,0,17.309-14.612,32.247-29.224,14.938-43.837,33.763,6.965,38.492,6.26,76.05,0C778.8,661.916,795.1,676.529,803.811,691.141Z" transform="translate(-2083.14 -2609.652)" fill="#0253b3"/>
      <path id="Path_219" data-name="Path 219" d="M803.811,691.141c-33.106-5.892-69.309-4.913-107.284,0,17.309-14.612,32.247-29.224,14.938-43.837,33.763,6.965,38.492,6.26,76.05,0C778.8,661.916,795.1,676.529,803.811,691.141Z" transform="translate(-2083.14 -2609.652)" opacity="0.2"/>
      <path id="Path_220" data-name="Path 220" d="M803.456,687.4c-28.122-4.7-58.875-3.921-91.134,0,14.7-11.664,27.393-23.328,12.69-34.991,28.68,5.56,32.7,5,64.6,0C782.213,664.076,796.056,675.739,803.456,687.4Z" transform="translate(-2090.86 -2612.148)" fill="#0253b3"/>
      <circle id="Ellipse_66" data-name="Ellipse 66" cx="14.984" cy="14.984" r="14.984" transform="translate(-1313.1 -1973.507)" fill="#2f2e41"/>
      <path id="Path_221" data-name="Path 221" d="M521.6,466.249l10.382,1.731,5.191,15-15,9.229-17.3-25.956H521.6Z" transform="translate(-1887.737 -2442.152)" fill="#a0616a"/>
      <circle id="Ellipse_67" data-name="Ellipse 67" cx="24.226" cy="24.226" r="24.226" transform="translate(-1360.946 -2001.281)" fill="#a0616a"/>
      <path id="Path_222" data-name="Path 222" d="M447.631,445.919s-58.833,6.345-69.216,5.191a128.569,128.569,0,0,1-15-2.307s-6.922,9.229-3.461,13.266a24.96,24.96,0,0,0,6.922,5.768s6.345-1.73,10.959,0,51.335,9.229,59.41,2.307S447.631,445.919,447.631,445.919Z" transform="translate(-1918.169 -2511.225)" fill="#2f2e41"/>
      <path id="Path_223" data-name="Path 223" d="M457.558,595.008s-38.645-10.959-45.567-59.41v-4.614s-7.646,13.414-10.382,16.15c-3.172,3.172-14.42,31.724-13.843,34.608s0,4.038,0,4.038l-16.727-1.73v-5.191s8.94-26.821,9.517-33.166,22.207-50.47,22.207-50.47,8.075-16.727,21.918,0,15,28.263,15,28.263l17.881,34.608Z" transform="translate(-1924.058 -2531.688)" fill="#2f2e41"/>
      <path id="Path_224" data-name="Path 224" d="M340.127,436.718l-18.458-6.345s-17.3-12.69-13.266,0,22.5,40.376,27.686,37.492,11.434-10.043,10.043-11.078S335.513,448.254,340.127,436.718Z" transform="translate(-1893.146 -2500.871)" fill="#2f2e41"/>
      <path id="Path_225" data-name="Path 225" d="M350.626,659.259l-14.9,7.277s-18.018,2.772-7.97,7.97,37.769,10.742,39.155,5.891.836-12.9-.621-12.688S354.784,668.961,350.626,659.259Z" transform="translate(-1901.414 -2615.494)" fill="#2f2e41"/>
      <path id="Path_226" data-name="Path 226" d="M523.5,608.159s-7.5,32.3,5.191,39.222,101.516,8.075,108.438-4.615,3.461-12.69,3.461-12.69l-18.458-20.765,15-1.154a5.384,5.384,0,0,0-5.191-5.191c-5.191-.577-21.342-6.345-35.185-2.307s-21.918-8.075-21.918-8.075Z" transform="translate(-1997.498 -2582.908)" fill="#575a89"/>
      <path id="Path_227" data-name="Path 227" d="M298.063,268.312l-9.806,53.643,67.486-8.075,12.113-48.451Z" transform="translate(-1781.866 -2344)" fill="#3f3d56"/>
      <path id="Path_228" data-name="Path 228" d="M303.666,272.261l-8.075,47.874,61.429-7.21,11.824-43.548Z" transform="translate(-1785.451 -2345.931)" fill="#fff"/>
      <path id="Path_229" data-name="Path 229" d="M289.462,376.57l-2.307-.577L286,378.3l18.458,51.335,1.736-.664.571-3.374Z" transform="translate(-1780.764 -2398.039)" fill="#b3b3b3"/>
      <path id="Path_230" data-name="Path 230" d="M288.257,367.7l18.458,53.642,69.792-10.382L355.743,360.2Z" transform="translate(-1781.866 -2390.319)" fill="#d0cde1"/>
      <path id="Path_231" data-name="Path 231" d="M306.309,365.966v2.884l51.335-5.768-.577-2.884Z" transform="translate(-1790.689 -2390.319)" fill="#3f3d56"/>
      <path id="Path_232" data-name="Path 232" d="M308.565,377.8l8.075,22.5,52.489-6.345L359.9,372.608Z" transform="translate(-1791.792 -2396.385)" fill="#3f3d56"/>
      <path id="Path_233" data-name="Path 233" d="M613.893,576.715l-1.73-4.614s-13.266-23.072-20.188-18.458,14.42,27.11,14.42,27.11h6.922Z" transform="translate(-2031.365 -2563.577)" fill="#a0616a"/>
      <path id="Path_234" data-name="Path 234" d="M547.514,580.165l-1.73-6.922s-4.614-21.341,3.461-20.188S559.627,574.4,559.627,574.4l-.577,4.614Z" transform="translate(-2008.823 -2563.566)" fill="#a0616a"/>
      <path id="Path_235" data-name="Path 235" d="M562.02,599.763s-15-2.307-15.574,1.154-3.461,55.373,10.959,57.1,85.943,9.229,78.445-8.652-19.034-15.574-19.034-15.574l-49.028,5.191Z" transform="translate(-2009.485 -2586.048)" fill="#575a89"/>
      <path id="Path_236" data-name="Path 236" d="M442.816,448.715l-15.285-10.671-10.094,7.787,12.69,13.843Z" transform="translate(-1845.003 -2428.366)" fill="#575a89"/>
      <path id="Path_237" data-name="Path 237" d="M386.976,479.224l2.307,21.918,39.8-2.307-34.608-.577Z" transform="translate(-1830.115 -2448.493)" opacity="0.2"/>
      <circle id="Ellipse_68" data-name="Ellipse 68" cx="28.84" cy="28.84" r="28.84" transform="translate(-1353.601 -2001.494)" fill="#2f2e41"/>
      <path id="Path_238" data-name="Path 238" d="M328.309,293.951l35.762-1.245,3.461-13.175-36.915,1.114Z" transform="translate(-1801.442 -2350.893)" fill="#0253b3"/>
      <path id="Path_239" data-name="Path 239" d="M310.258,318.543l54.219-1.731.577-2.307-54.219,1.909Z" transform="translate(-1792.619 -2367.987)" fill="#e6e6e6"/>
      <path id="Path_240" data-name="Path 240" d="M308,329.825l54.219-1.731.577-2.307L308.578,327.7Z" transform="translate(-1791.516 -2373.501)" fill="#e6e6e6"/>
      <path id="Path_241" data-name="Path 241" d="M306.873,338.85l54.219-1.73.577-2.307-54.219,1.909Z" transform="translate(-1790.965 -2377.912)" fill="#e6e6e6"/>
    </g>
  </g>
</svg>
