<svg id="Group_5" data-name="Group 5" xmlns="http://www.w3.org/2000/svg" width="280" height="239" viewBox="0 0 280 239">
  <path id="Fill_10" data-name="Fill 10" d="M183.443,13.324c-38.639,8.535-50.6,39.785-54.385,54.88a51.221,51.221,0,0,1-20.48,29.878c-12.371,8.473-28.507,10.328-42.67,14.724-12.6,3.909-26.518,10.726-31.144,23.507-3.23,8.924-3.774,27.484-18.561,35.925-4.978,2.842-13.866,5.524-15.648,11.688-1.875,6.485.891,12.259,10.006,14.979,4.785,1.428,10.924.883,18.392.338a136.487,136.487,0,0,1,19.922-.338c14.307.989,15.65,14.333,25.9,21.28,7.437,5.039,16.617,4.9,25.806,4.753,6.313-.1,12.631-.2,18.391,1.386,10.248,2.815,19.35,8.545,29.763,10.716,15.1,3.147,30.873,2.136,45.972-.454,18.092-3.105,50.285-15.944,65.568-44.923,10.653-10.782,38.48-141.132,0-176.047-11.117-10.087-49.323-18.77-63.961-14.5L183.443,13.324" fill="rgba(252,196,151,0.16)" opacity="0.609"/>
  <g id="Group_4" data-name="Group 4" transform="translate(84 47)">
    <g id="Group_2" data-name="Group 2">
      <path id="Fill_18" data-name="Fill 18" d="M0,24.872H72.351V0H0Z" transform="translate(57.469 92.837)" fill="#18a4e0"/>
      <path id="Fill_19" data-name="Fill 19" d="M0,24.872H55.125V0H0Z" transform="translate(2.189 92.837)" fill="#eff2f4"/>
      <path id="Fill_20" data-name="Fill 20" d="M0,2.571H55.125V.4H0Z" transform="translate(2.189 97.752)" fill="#b0b3cf"/>
      <path id="Fill_21" data-name="Fill 21" d="M0,2.572H55.125V.4H0Z" transform="translate(2.189 109.766)" fill="#b0b3cf"/>
      <path id="Fill_22" data-name="Fill 22" d="M0,2.571H55.125V.4H0Z" transform="translate(2.189 103.759)" fill="#b0b3cf"/>
      <path id="Fill_23" data-name="Fill 23" d="M0,3.491H129.5V0H0Z" transform="translate(0 89.56)" fill="#0f90c7"/>
      <path id="Fill_24" data-name="Fill 24" d="M0,3.5H129.5V0H0Z" transform="translate(0 117.411)" fill="#0f90c7"/>
      <path id="Fill_25" data-name="Fill 25" d="M0,31.86H12.925V0H0Z" transform="translate(119.864 121.234)" fill="#0253b3"/>
      <path id="Fill_26" data-name="Fill 26" d="M0,24.872H91.234V0H0Z" transform="translate(5.473 124.511)" fill="#eff2f4"/>
      <path id="Fill_27" data-name="Fill 27" d="M0,2.572H37.367V.4H0Z" transform="translate(27.366 129.426)" fill="#b0b3cf"/>
      <path id="Fill_28" data-name="Fill 28" d="M0,2.571H51.559V.4H0Z" transform="translate(13.136 135.433)" fill="#b0b3cf"/>
      <path id="Fill_29" data-name="Fill 29" d="M0,2.571H51.559V.4H0Z" transform="translate(13.136 141.986)" fill="#b0b3cf"/>
      <path id="Fill_30" data-name="Fill 30" d="M0,24.872H63.865V0H0Z" transform="translate(64.584 124.511)" fill="#0253b3"/>
      <path id="Fill_31" data-name="Fill 31" d="M0,3.5H129.5V0H0Z" transform="translate(1.095 121.234)" fill="#0253b3"/>
      <path id="Fill_32" data-name="Fill 32" d="M0,3.491H129.5V0H0Z" transform="translate(1.095 149.631)" fill="#0253b3"/>
      <path id="Fill_66" data-name="Fill 66" d="M1.865,10.358l7.895-1.7L7.895,0,0,1.7l1.865,8.663" transform="translate(105.634 117.411)" fill="#f5c8ba"/>
      <path id="Fill_67" data-name="Fill 67" d="M20.92,0,21.6,3.123,7.056,6.246q-.388-.615-.776-1.223c0,.463.006.923.009,1.386l-5.2,1.116L0,2.482,7.895.787,20.92,0" transform="translate(107.823 125.603)" fill="#2f65a2"/>
      <path id="Fill_68" data-name="Fill 68" d="M10.661,49.458,22.586,46.9,13.341,2.075,0,0,10.661,49.458" transform="translate(93.593 73.177)" fill="#f5c094"/>
      <path id="Fill_69" data-name="Fill 69" d="M29.761,4.346l-.527,4.765L0,8.274.6,0,29.761,4.346" transform="translate(54.185 57.34)" fill="#ea8a76"/>
      <path id="Fill_70" data-name="Fill 70" d="M.051,8.906l8.073-.045L8.073,0,0,.047.051,8.906" transform="translate(95.782 139.801)" fill="#f5c8ba"/>
      <path id="Fill_71" data-name="Fill 71" d="M20.986,1.891,21,5.085l-14.87.083c-.17-.448-.342-.9-.512-1.354-.092.454-.184.908-.277,1.36L.027,5.207,0,.045,8.073,0,20.986,1.891" transform="translate(96.329 148.539)" fill="#2f65a2"/>
      <path id="Fill_72" data-name="Fill 72" d="M48.709,32.438l.586-1.223a7.613,7.613,0,0,0-3.614-10.15L4.543.325c-3.8-1.8-1.407,4.314-3.219,8.11L.741,9.665A7.612,7.612,0,0,0,4.352,19.812l34.19,16.233a7.633,7.633,0,0,0,10.167-3.607" transform="translate(58.564 66.078)" fill="#ed9b64"/>
      <path id="Fill_73" data-name="Fill 73" d="M.271,49.942l12.2.237L15.581,3.159,0,0,.271,49.942" transform="translate(93.045 91.745)" fill="#ed9b64"/>
      <path id="Fill_74" data-name="Fill 74" d="M0,50.718H33.637v-40c0-3.981-3.046-6.157-6.452-7.448-1.761-.668-3.6-1.092-5.411-1.6-.9-.255-4.236-1.9-4.956-1.642L13.954,1.061C11.47,1.958,8.983,2.7,6.44,3.415,2.9,4.41,0,6.764,0,10.718v40" transform="translate(42.144 27.851)" fill="#0253b3"/>
      <path id="Fill_75" data-name="Fill 75" d="M8.409,12.587H25.228A8.4,8.4,0,0,0,33.637,4.2V0H0V4.2a8.4,8.4,0,0,0,8.409,8.39" transform="translate(42.144 78.638)" fill="#f5c094"/>
      <path id="Fill_76" data-name="Fill 76" d="M65.042,8.125l-.152-1.348A7.624,7.624,0,0,0,56.47.047L0,9.081s11.628-.65,12.095,3.533l.149,1.348c.464,4.18,10.1,8.072,14.284,7.609L58.3,16.532a7.619,7.619,0,0,0,6.743-8.407" transform="translate(42.144 69.355)" fill="#f5c094"/>
      <path id="Fill_77" data-name="Fill 77" d="M3.032,11.278h0a3.345,3.345,0,0,0,3.653-3L7.416.638.75,0,.015,7.635a3.34,3.34,0,0,0,3.016,3.643" transform="translate(56.922 21.298)" fill="#f5b6a2"/>
      <path id="Fill_78" data-name="Fill 78" d="M.115,0,6.784.641,5.963,9.167C3.036,8.392.365,5.9.056,2.96A12.662,12.662,0,0,1,.026.944L.115,0" transform="translate(57.469 19.66)" fill="#ea8a76"/>
      <path id="Fill_79" data-name="Fill 79" d="M8.765,20.448a4.038,4.038,0,0,0,1.565-.579,7.229,7.229,0,0,0,2.8-4.652c.2-.926,1.392-13.95,1.407-13.95L1.3,0,.608,7.158C.391,9.429-.183,11.78.058,14.063c.41,3.88,4.914,6.973,8.707,6.386" transform="translate(56.374 6.553)" fill="#f5b6a2"/>
      <path id="Fill_80" data-name="Fill 80" d="M.87,4.42.721,4.278.695,3.542l.051-.116L.864,3.39l1.059.16L.772.187.864,0l.187.095L2.28,3.687l-.027.142-.134.047L1,3.708l.018.558-.14.154H.87" transform="translate(65.679 15.291)" fill="#ea8a76"/>
      <path id="Fill_81" data-name="Fill 81" d="M4.968.892A2.564,2.564,0,0,1,2.3,2.54,2.561,2.561,0,0,1,0,.417L4.968.892" transform="translate(63.49 19.113)" fill="#fffffe"/>
      <path id="Fill_82" data-name="Fill 82" d="M2.716,29.576l-.747-.261c-2.308-.813-2.282-3-1.466-5.3L6.577,2.956a4.435,4.435,0,0,1,5.658-2.7l.744.261a4.423,4.423,0,0,1,2.71,5.643l-8.5,20.2c-.815,2.3-2.166,4.026-4.474,3.212" transform="translate(36.123 34.404)" fill="#f5b6a2"/>
      <path id="Fill_84" data-name="Fill 84" d="M0,2.215.654,4.266a6.63,6.63,0,0,0,2.2,2.562A13.94,13.94,0,0,0,7.228,8.962,11.05,11.05,0,0,0,9.6,9.337a9.7,9.7,0,0,0,1.246-.024l.012,0a.752.752,0,0,0,.58-1.092L11.2,7.733c-.437-.751-.851-1.5-1.35-2.206C8.35,3.417,4.813.5,1.984,0,.256,1.321,1.731.9,0,2.215" transform="translate(67.321 60.071)" fill="#f5b6a2"/>
      <path id="Fill_85" data-name="Fill 85" d="M15.12.854c1.752,3.245,1.66,7.235.574,10.761a41.913,41.913,0,0,1-5.048,9.814C7.115,20.818,3.572,20.225,0,19.913,1.392,15.335,3.07,10.5,4.849,6.055A13.072,13.072,0,0,1,7.567,1.362C9.495-.523,12.642-.212,15.12.854" transform="translate(36.671 32.766)" fill="#0a50a4"/>
      <path id="Fill_86" data-name="Fill 86" d="M0,2.324l11.541.549L14.171.095,0,.662V2.324" transform="translate(68.963 69.355)" fill="#e0ebf2"/>
      <path id="Fill_87" data-name="Fill 87" d="M13.954,2.329H0V1.756L13.954.64V2.329" transform="translate(68.963 68.262)" fill="#e0ebf2"/>
      <path id="Fill_88" data-name="Fill 88" d="M0,26.368l31.6-3.423L37.307,0H6.565L0,26.368" transform="translate(80.457 45.872)" fill="#eff2f4"/>
      <path id="Fill_89" data-name="Fill 89" d="M20.117,11.2a2.268,2.268,0,0,0,.58-.938c.354-1.167-.354-2.372-1.112-3.322a21.9,21.9,0,0,0-7.6-6.056A7.529,7.529,0,0,0,9.106.005,3.3,3.3,0,0,0,6.39,1.062c-.565.692-.764,1.772-1.588,2.232-.928.525-1.895-.279-2.856-.08A2.016,2.016,0,0,0,.518,4.758a5.592,5.592,0,0,0,.024,2.2,12.9,12.9,0,0,1,.19,4.254C.5,12.429-.113,13.6.018,14.834a2.962,2.962,0,0,0,1.919,2.461,2.689,2.689,0,0,0,2.957-.879,3.765,3.765,0,0,0,.631-1.728c.155-1.045.1-2.111.309-3.144A3.312,3.312,0,0,1,7.577,9.06c1.214-.5,2.573.131,3.739.739A22.932,22.932,0,0,0,16,11.8a5.593,5.593,0,0,0,2.707.16,3.048,3.048,0,0,0,1.407-.76" transform="translate(53.091 0)" fill="#29315e"/>
    </g>
    <path id="Fill_83" data-name="Fill 83" d="M31,4.292,30.452,9,0,8.17.62,0,31,4.292" transform="translate(40 56)" fill="#f5b6a2"/>
  </g>
</svg>
