<svg xmlns="http://www.w3.org/2000/svg" width="543.086" height="452.582" viewBox="0 0 543.086 452.582">
  <g id="Group_9716" data-name="Group 9716" transform="translate(-103.445 -567.64)">
    <path id="Path_150" data-name="Path 150" d="M554.838,354.113a53.116,53.116,0,0,1-1.556,8.68,74.462,74.462,0,0,1-7.842,18.736c-20.023,34.918-59.231,55.141-98.689,63.391s-80.192,6.455-120.448,8.3c-54.373,2.464-108.605,11.583-162.978,8.6A368.056,368.056,0,0,1,87.084,449.47C-33,449.47,25.708,266.08,32.612,196.553c2.993-29.93,6.465-61.346,23.555-86.128,20.223-29.3,56.029-43.9,91.056-50.282S218.3,54.157,253.135,46.8C310,34.832,365.063,2.638,422.478,11.816,478.8,20.8,524.5,74.439,524.469,131.475c0,40.036-18.167,79.813-7.742,119.719C525.8,285.8,558.33,316.452,554.838,354.113Z" transform="translate(91.232 557.448)" fill="#fff" opacity="0.688" style="isolation: isolate"/>
    <g id="undraw_clean_up_ucm0" transform="translate(207.556 709.449)">
      <path id="Path_132" data-name="Path 132" d="M577.11,638.9c6.13,21.822-52.873,71.681-156.683,43.848-83.582-22.41-156.683-31.9-156.683-43.848s70.149.585,156.683.585S573.879,627.4,577.11,638.9Z" transform="translate(-245.219 -405.214)" fill="#3f3d56"/>
      <path id="Path_133" data-name="Path 133" d="M577.11,638.9c6.13,21.822-52.873,71.681-156.683,43.848-83.582-22.41-156.683-31.9-156.683-43.848s70.149.585,156.683.585S573.879,627.4,577.11,638.9Z" transform="translate(-245.219 -405.214)" opacity="0.1"/>
      <path id="Path_134" data-name="Path 134" d="M577.11,620.037c6.13,21.822-52.873,49.465-156.683,21.632-83.582-22.41-156.683-9.685-156.683-21.632s70.149-21.632,156.683-21.632S573.879,608.535,577.11,620.037Z" transform="translate(-245.219 -386.349)" fill="#3f3d56"/>
      <ellipse id="Ellipse_26" data-name="Ellipse 26" cx="12" cy="4" rx="12" ry="4" transform="translate(213.944 241.051)" opacity="0.1"/>
      <ellipse id="Ellipse_27" data-name="Ellipse 27" cx="12" cy="4" rx="12" ry="4" transform="translate(262.944 241.051)" opacity="0.1"/>
      <ellipse id="Ellipse_28" data-name="Ellipse 28" cx="39.5" cy="10.5" rx="39.5" ry="10.5" transform="translate(135.944 216.051)" opacity="0.1"/>
      <path id="Path_135" data-name="Path 135" d="M574.5,337.335V143.44H224v193.9H385.735v25.919c-8.078.967-13.517,2.773-13.517,4.843,0,3.089,12.1,5.593,27.033,5.593s27.033-2.5,27.033-5.593c0-2.07-5.439-3.876-13.517-4.843V337.335Z" transform="translate(-224 -143.44)" fill="#3f3d56"/>
      <rect id="Rectangle_61" data-name="Rectangle 61" width="314.148" height="173.784" transform="translate(18.178 6.793)" fill="#f2f2f2"/>
      <path id="Path_136" data-name="Path 136" d="M577.148,158.44S446.641,171.956,422.87,224.159,263,331.827,263,331.827H577.148Z" transform="translate(-244.822 -151.448)" opacity="0.1"/>
      <path id="Path_137" data-name="Path 137" d="M754.389,336.44v12.887H706.152v-12.1h-1.4V491.649h1.4V464h48.237v27.645h1.4V336.44Zm0,14.285v21.257H706.152V350.725Zm-48.237,66.569V396.036h48.237v21.257Zm48.237,1.4v21.257H706.152V418.692Zm-48.237-24.054V373.38h48.237v21.258Zm0,67.967V441.348h48.237v21.258Z" transform="translate(-480.677 -246.483)" fill="#2f2e41"/>
      <path id="Path_138" data-name="Path 138" d="M672.276,343.023v1.932s-1.38.552-1.38,2.759-1.1,10.486-1.1,10.486,1.932,1.656,3.587,1.1a6.742,6.742,0,0,0,2.483-1.38l.276-8.554-1.1-2.208V343.3Z" transform="translate(-462.011 -249.998)" fill="#0253b3"/>
      <path id="Path_139" data-name="Path 139" d="M778.483,178.44s-4.8.552-4.8,2.759-3.839,10.486-3.839,10.486a43.984,43.984,0,0,0,12.477,1.1,53.108,53.108,0,0,0,8.638-1.38l.96-8.554-3.839-2.208Z" transform="translate(-515.43 -162.126)" fill="#0253b3"/>
      <path id="Path_140" data-name="Path 140" d="M786.018,200.6v-5.243s-5.795-11.589-1.1-11.589,5.243,10.486,5.243,10.486v7.45Z" transform="translate(-522.497 -164.971)" fill="#ffb8b8"/>
      <path id="Path_141" data-name="Path 141" d="M677.43,336.852s-3.035-1.656-3.587,0-2.208,5.243,0,5.519,4.415-1.656,4.415-1.656Z" transform="translate(-463.578 -246.311)" fill="#ffb8b8"/>
      <path id="Path_142" data-name="Path 142" d="M714.229,359.034s-1.661,2.194.749,23.6,1.022,37,5.6,36.783c0,0-1.194,4.642,2.694,4.814s5.665.441,5.968-.631.777-6.034-.279-5.985c0,0,.066,1.408.507-4.257s-.808-32.42.788-36.023L736.5,390.1s.279,5.985,1.467,8.752,3.7,18.879,3.7,18.879l-.237,2.481s8.515,1.014,8.8-.411a8.463,8.463,0,0,0-.2-4.224c-.385-.688-.385-.688.253-2.129a4.267,4.267,0,0,0,.188-3.537c-.4-1.04-1.47-23.922-1.47-23.922S747,358.21,742.711,357,714.229,359.034,714.229,359.034Z" transform="translate(-485.438 -257.316)" fill="#2f2e41"/>
      <path id="Path_143" data-name="Path 143" d="M723.912,495.66l-2.586,5.06s-4.474-1.379-3.405,2.629a70.425,70.425,0,0,0,12.841-.776s1.793.622,2.1-.451-1.1-4.711-2.158-4.662S723.912,495.66,723.912,495.66Z" transform="translate(-487.619 -331.492)" fill="#2f2e41"/>
      <path id="Path_144" data-name="Path 144" d="M772.667,488.832s-2.52,6.468-1.448,6.771,10.643,1.267,11.364,1.586,4.257.507,4.511-1.622a2.592,2.592,0,0,0-1.892-2.734s-3.905-.523-5.126-3.994S772.667,488.832,772.667,488.832Z" transform="translate(-516.022 -327.026)" fill="#2f2e41"/>
      <ellipse id="Ellipse_29" data-name="Ellipse 29" cx="7.371" cy="7.371" rx="7.371" ry="7.371" transform="translate(225.376 34.496)" fill="#ffb8b8"/>
      <path id="Path_145" data-name="Path 145" d="M715.033,238.506s1.94,10.087,1.164,12.026,10.863-.776,10.863-.776-2.328-10.087-1.94-12.414S715.033,238.506,715.033,238.506Z" transform="translate(-486.166 -193.147)" fill="#ffb8b8"/>
      <path id="Path_146" data-name="Path 146" d="M713.256,213.655a4.166,4.166,0,0,0-1.844.081,4.806,4.806,0,0,0-1.31.86,15.342,15.342,0,0,1-2.241,1.484,5.229,5.229,0,0,0-1.743,1.222,3.7,3.7,0,0,0-.492.931,11.157,11.157,0,0,0-.587,6.074,2.791,2.791,0,0,0,.258.834c.4.743,1.294,1.036,2.044,1.425a17.464,17.464,0,0,1,3.672,3.085,7.179,7.179,0,0,0,1.451,1.118c1.667.909,3.7.612,5.575.291a1,1,0,0,0,1-1.014l1.477-6.642a10.838,10.838,0,0,0,.378-3.021,8.6,8.6,0,0,0-2.159-4.991C717.359,214.058,715.058,213.846,713.256,213.655Z" transform="translate(-480.733 -180.892)" fill="#2f2e41"/>
      <path id="Path_147" data-name="Path 147" d="M702.068,261.8s.552-3.863,3.863-4.139a27.3,27.3,0,0,0,5.519-1.1c.276,0,3.863.276,5.519,1.932,0,0,1.1,1.656,1.656.552s.552-1.656,1.656-1.1,1.1-1.656,3.035-1.38,6.9,12.693,6.9,12.693l-1.656,1.932s-2.208,14.9,1.656,21.247,5.519,13.245,1.656,14.625-30.905,13.8-29.8,6.071.276-19.868-.828-20.144-7.174-22.075-7.174-22.075a8.571,8.571,0,0,1,4.967-6.347C703.448,262.63,702.068,261.8,702.068,261.8Z" transform="translate(-474.971 -203.822)" fill="#575a88"/>
      <path id="Path_148" data-name="Path 148" d="M753.861,236.2l1.38-1.1s2.484,0,2.759-.552,1.656-.552,2.76-1.1-.276-1.38,1.1-1.932,1.38,0,1.38-1.38,3.587-2.759,3.863-4.415,3.035-9.382,3.035-9.382l5.243,1.656L774,227.919s0,4.967-2.483,8.278-8,11.589-10.762,11.865S753.861,236.2,753.861,236.2Z" transform="translate(-506.896 -182.356)" fill="#575a88"/>
      <path id="Path_149" data-name="Path 149" d="M689.083,284.412l-1.656,1.38s-.552,6.071-.552,6.347.552,3.587,0,3.863-1.656,5.795-1.38,6.071h0v.828l-3.863,6.071v5.795l9.106-5.795s5.243-.552,4.415-5.243S689.083,284.412,689.083,284.412Z" transform="translate(-468.333 -218.706)" fill="#575a88"/>
      <ellipse id="Ellipse_30" data-name="Ellipse 30" cx="5.5" cy="5" rx="5.5" ry="5" transform="translate(169.944 184.051)" fill="#0253b3"/>
    </g>
    <path id="Path_151" data-name="Path 151" d="M561.346,363.62a75.574,75.574,0,0,1-7.96,19.018c-20.324,35.443-60.122,55.97-100.173,64.345s-81.4,6.552-122.26,8.425c-55.191,2.5-110.24,11.757-165.43,8.729A373.6,373.6,0,0,1,88.134,451.6c-16.942-4.618-51.95-10.633-62.2-26.329-6.41-9.793-7.463-28.142-7.676-43.606,3.838.608,7.646,1.519,10.987,1.833,11.342,1.094,22.826,1.165,34.2,1.519q36.132,1.155,72.315,1.549,144.022,1.529,287.832-9.479Q492.586,371.782,561.346,363.62Z" transform="translate(85.186 555.482)" fill="#474b8c" opacity="0.24" style="isolation: isolate"/>
  </g>
</svg>
