<svg xmlns="http://www.w3.org/2000/svg" width="138.719" height="166.289" viewBox="0 0 138.719 166.289">
  <g id="Group_9709" data-name="Group 9709" transform="translate(0)">
    <path id="Path_4797" data-name="Path 4797" d="M1069,501.278s7.616-.22,9.916-15.59c0,0,.764,18.3-10.724,30.783a1.69,1.69,0,0,0-.119.182C1067.8,517.052,1071,515.887,1069,501.278Z" transform="translate(-946.925 -423.84)" fill="#ef9b37"/>
    <path id="Path_4798" data-name="Path 4798" d="M1071.946,499.8s1.655,6.395-4.828,17.354c0,0,11.311-10.04,11.311-31.462C1078.429,485.688,1077.62,495.294,1071.946,499.8Z" transform="translate(-946.438 -423.84)" fill="#404041" opacity="0.3" style="mix-blend-mode: multiply;isolation: isolate"/>
    <path id="Path_4799" data-name="Path 4799" d="M821.759,579.028s1.837-24.513,11.886-27.089L831.58,548.7s-14.8,18.581-15.183,30.617S821.759,579.028,821.759,579.028Z" transform="translate(-816.201 -456.568)" fill="#0253b3"/>
    <path id="Path_4800" data-name="Path 4800" d="M828.234,691.483c-.175-.188-.339-.385-.5-.582C827.893,691.1,828.061,691.294,828.234,691.483Z" transform="translate(-822.097 -530.43)"/>
    <path id="Path_4801" data-name="Path 4801" d="M1100.829,680.528c-.018.05-.036.1-.054.151C1100.793,680.629,1100.811,680.579,1100.829,680.528Z" transform="translate(-963.92 -525.042)"/>
    <path id="Path_4802" data-name="Path 4802" d="M828.919,692.261c-.047-.05-.095-.1-.141-.149Z" transform="translate(-822.642 -531.059)"/>
    <path id="Path_4803" data-name="Path 4803" d="M890.231,408.965h11.713l29.565,0c9.15.01,15.11,5.8,15.124,14.935q.071,47.1,0,94.2a18.12,18.12,0,0,1-.925,5.94c-.015.042-.029.084-.045.125-.079.222-.169.435-.257.649a13.539,13.539,0,0,1-2.023,3.351c-.136.163-.272.326-.417.482-.038.042-.077.082-.116.123a14.514,14.514,0,0,1-5.634,3.554c-.177.064-.358.122-.539.178-.045.013-.089.028-.135.041l-.132.036q-.633.172-1.3.3c-.1.018-.2.036-.306.052l-.219.034a18.477,18.477,0,0,1-2.571.179q-20.848.037-41.7.04h-.191q-20.848-.006-41.7-.04a18.481,18.481,0,0,1-2.572-.179l-.219-.034c-.1-.016-.2-.034-.305-.052q-.664-.123-1.3-.3l-.133-.036c-.046-.013-.09-.028-.135-.041-.182-.056-.362-.113-.539-.178a14.515,14.515,0,0,1-5.634-3.554c-.038-.041-.078-.081-.116-.123-.145-.156-.281-.319-.417-.482a13.543,13.543,0,0,1-2.023-3.351c-.088-.214-.178-.428-.257-.649-.015-.041-.03-.083-.045-.125a18.109,18.109,0,0,1-.924-5.94q-.047-47.1,0-94.2c.013-9.131,5.973-14.925,15.124-14.935l29.565,0h11.713m0-7h-41.28c-6.379.007-11.872,2.1-15.894,6.056-4.065,4-6.218,9.483-6.228,15.868-.04,27.226-.042,56.282,0,94.212a25.136,25.136,0,0,0,1.311,8.227l.011.034.012.034.009.024.034.094h0c.133.373.262.685.367.937l.015.037.011.027.011.026a20.569,20.569,0,0,0,3.07,5.076l.018.022.018.022.037.045c.149.177.35.417.594.681.054.059.108.116.163.173l-.009-.009.025.027.026.027a21.486,21.486,0,0,0,8.3,5.295c.268.1.547.19.878.291l.028.009c.074.024.145.045.216.065l.235.064c.607.165,1.232.308,1.859.424l.021,0,.021,0c.143.025.286.05.43.073l.229.036.039.006.034,0,.034,0a25.41,25.41,0,0,0,3.552.25c13.094.023,26.736.036,41.706.04h.193c14.972,0,28.614-.017,41.708-.04a25.405,25.405,0,0,0,3.551-.25l.034,0,.034,0,.039-.006.227-.035c.144-.023.288-.048.433-.074l.021,0,.021,0c.629-.117,1.255-.26,1.862-.425h0c.077-.02.15-.04.222-.061l.231-.07.024-.007c.33-.1.609-.194.878-.292a21.479,21.479,0,0,0,8.3-5.294l.026-.028.013-.014c.06-.063.114-.12.166-.176.244-.263.445-.5.594-.681l.037-.045.018-.022.018-.022a20.555,20.555,0,0,0,3.07-5.076l.012-.026.011-.027.014-.035c.1-.252.234-.565.368-.938l.034-.1.012-.034.02-.057a25.137,25.137,0,0,0,1.311-8.227c.037-37.949.036-67,0-94.212-.01-6.385-2.163-11.872-6.227-15.868-4.022-3.955-9.516-6.049-15.887-6.056H890.232Z" transform="translate(-821.613 -380.354)" fill="#527fa3"/>
    <path id="Path_4804" data-name="Path 4804" d="M1058.792,611.352s-1.683-.677-3.195-1.484c-3.333-1.78-5.71-2.718-12.9,1.484,0,0-9.074,6.444-15.244,5.365l-5.317,10.177s11.81-.966,20.378-8.5c3.98-3.5,9.614-5.2,11.768.4" transform="translate(-923.076 -487.558)" fill="#ef9b37"/>
    <path id="Path_4805" data-name="Path 4805" d="M1055.16,485.688s.618,17.443-10.805,30.872-22.69,19.14-21.919,46.616l7.254-1.544s-3.241-5.711-1.389-11.731,3.087-8.953,12.966-16.671,14.973-15.745,16.825-21.61S1061.334,487.849,1055.16,485.688Z" transform="translate(-923.21 -423.84)" fill="#0253b3"/>
    <path id="Path_4806" data-name="Path 4806" d="M1044.166,449.134a23.286,23.286,0,0,1-.459,2.906,25.207,25.207,0,0,1-2.031,5.7,127.736,127.736,0,0,0,14.013-.734l.972-.143q1.944-.285,1.547-2.985a6.376,6.376,0,0,0-3.908-4.831A43.441,43.441,0,0,0,1044.253,446,12.057,12.057,0,0,1,1044.166,449.134Z" transform="translate(-933.223 -403.227)" fill="none"/>
    <path id="Path_4807" data-name="Path 4807" d="M983.6,517.056c-.1.017-.189.036-.284.052C983.415,517.091,983.51,517.076,983.6,517.056Z" transform="translate(-902.912 -440.133)" fill="#fff"/>
    <path id="Path_4808" data-name="Path 4808" d="M991.54,483.05c-.384.094-.88-.2-1.3-.138a3.889,3.889,0,0,1,3.849,1.2,8.671,8.671,0,0,1,1.676,4.277,11.472,11.472,0,0,1-.669,6.718,9.512,9.512,0,0,1-3.388,3.972,11.086,11.086,0,0,1-3.715,1.575,19.9,19.9,0,0,0,9.314-4.382,69.942,69.942,0,0,0,9.961-10.673c-9.64.091-14.639-3.106-14.639-3.106A6.027,6.027,0,0,1,991.54,483.05Z" transform="translate(-905.338 -422.179)" fill="#0253b3"/>
    <path id="Path_4809" data-name="Path 4809" d="M991.228,469.118a9.506,9.506,0,0,0,2.987,6.07,16.126,16.126,0,0,1-3.064-6.7C991.174,468.7,991.2,468.91,991.228,469.118Z" transform="translate(-906.98 -414.908)" fill="#fff"/>
    <path id="Path_4810" data-name="Path 4810" d="M982.572,517.224c.022,0,.043,0,.065-.007.1-.015.2-.038.295-.054-.1.018-.2.038-.294.052Z" transform="translate(-902.524 -440.189)" fill="#fff"/>
    <path id="Path_4811" data-name="Path 4811" d="M1043.383,428.631a14.3,14.3,0,0,0-2.192-5.911,13.237,13.237,0,0,0-5.273-4.355,51.589,51.589,0,0,0-5.473-2.341q-3.679-1.388-9.367-3.313a63.911,63.911,0,0,1-7.676-3.065,9.842,9.842,0,0,1-3.909-2.956l-.9-.089q-3.677,7.271-3.185,10.617a1.855,1.855,0,0,0,.219.74c14.062-3.431,19.19,3.264,19.756,7.579a43.437,43.437,0,0,1,10.045,3.048,6.376,6.376,0,0,1,3.908,4.831q.4,2.7-1.547,2.985l-.972.143a127.729,127.729,0,0,1-14.013.734,25.215,25.215,0,0,0,2.031-5.7,23.285,23.285,0,0,0,.459-2.906,38.7,38.7,0,0,1-2.189,7.857,5.922,5.922,0,0,1-.748,1.361l-6.079,8.292q5.2.12,9.639-.092t8-.733q4.211-.618,6.193-2.9a14.759,14.759,0,0,0,2.873-5.607A18.946,18.946,0,0,0,1043.383,428.631Z" transform="translate(-914.358 -382.761)" fill="#0253b3"/>
    <path id="Path_4812" data-name="Path 4812" d="M988.29,495.484a11.473,11.473,0,0,0,.669-6.718,8.673,8.673,0,0,0-1.676-4.277,3.889,3.889,0,0,0-3.849-1.2l-.023,0a10.522,10.522,0,0,0-4.215,1.722,9.855,9.855,0,0,0-3.434,4.035,11.26,11.26,0,0,0-.684,6.609q.9,6.112,5.484,5.48l.063-.008c.1-.014.19-.034.286-.05s.183-.034.276-.05a11.087,11.087,0,0,0,3.716-1.575A9.512,9.512,0,0,0,988.29,495.484Z" transform="translate(-898.535 -422.558)" fill="#0253b3"/>
    <path id="Path_4813" data-name="Path 4813" d="M1046.857,449.134a12.058,12.058,0,0,0,.088-3.131A23.427,23.427,0,0,1,1046.857,449.134Z" transform="translate(-935.914 -403.227)" fill="#f3931b"/>
    <path id="Path_4814" data-name="Path 4814" d="M991.2,442.367a21.54,21.54,0,0,1,2.99-7.058,15.175,15.175,0,0,1,1.044-1.532l1.566-2.106a15.031,15.031,0,0,1,1.167-1.44s-9.011,8.468-7.1,18.387A19.506,19.506,0,0,1,991.2,442.367Z" transform="translate(-906.693 -395.035)" fill="#f3931b"/>
    <path id="Path_4815" data-name="Path 4815" d="M1015.61,447.778a22.107,22.107,0,0,0,2.189-7.857,23.417,23.417,0,0,0,.088-3.131c-.566-4.315-5.695-11.01-19.756-7.579a15.017,15.017,0,0,0-1.167,1.44l-1.566,2.106a15.192,15.192,0,0,0-1.044,1.532,21.54,21.54,0,0,0-2.99,7.058,19.506,19.506,0,0,0-.336,6.252c.346,1.894.5,4.375,3.064,6.7,0,0,5.052,3.23,14.692,3.138l6.079-8.292C1015.17,448.72,1015.336,448.22,1015.61,447.778Zm-3.961-3.508a16.709,16.709,0,0,1-3.966,4.167q-10.759.368-11.566-5.141a7.715,7.715,0,0,1,.693-4.294,13.239,13.239,0,0,1,2.724-3.985A6.4,6.4,0,0,1,1003.1,433a8.4,8.4,0,0,1,3.751.386,8.8,8.8,0,0,1,3.575,2.178,7.263,7.263,0,0,1,1.946,4.237A6.655,6.655,0,0,1,1011.649,444.27Z" transform="translate(-906.856 -394.014)" fill="#ef9b37"/>
    <path id="Path_4816" data-name="Path 4816" d="M1025.688,434.018s-12.738-2.934-19.756-7.579l5.385-3.51,11.188.649s7.356,5.442,5.675,8.026S1025.688,434.018,1025.688,434.018Z" transform="translate(-914.657 -391.242)" fill="#0253b3"/>
    <path id="Path_4817" data-name="Path 4817" d="M1029.733,470.433s-.916,2.289-6.89,8.9l-4.16-2.756,6.646-3.73Z" transform="translate(-921.28 -415.916)" fill="#f3931b"/>
    <path id="Path_4818" data-name="Path 4818" d="M816.679,475.766s1.27-7.308,5.949-12.437q-.655,3.628-.961,6.9a50.075,50.075,0,0,0,.208,11.938,29.018,29.018,0,0,0,3.9,11.562,18.925,18.925,0,0,0,6.872,6.6,22.946,22.946,0,0,0,8.716,2.636,38.126,38.126,0,0,0,9.345-.214,41.308,41.308,0,0,0,14.552-4.949,33.014,33.014,0,0,0,10.783-9.581,39.231,39.231,0,0,0,5.584-10.8,31.466,31.466,0,0,0,1.687-8.8q.111-3-.176-7.586t-1.156-13.509l-5.74-54.866q-.69-6.956-.91-11.836a69.123,69.123,0,0,1,.1-8.728,72.675,72.675,0,0,1,1-7.482q.492-2.626,1.209-5.69a2.5,2.5,0,0,1,2.974-1.875h0q-.146,2.78-.04,7.617t.844,12.507q.737,7.669,2.389,18.9a70.04,70.04,0,0,0,2.928,12.808q1.8,5.142,5.169,7.4t8.981,1.439l.023,0-.023,0a10.522,10.522,0,0,0-4.215,1.722,9.854,9.854,0,0,0-3.434,4.035,11.26,11.26,0,0,0-.684,6.609q.9,6.112,5.484,5.48a14.14,14.14,0,0,1-5.927-.232,12.564,12.564,0,0,1-4.02-1.836l.976,8.9q.4,3.472.466,10.687a121.361,121.361,0,0,1-1.186,16.722,100.841,100.841,0,0,1-4.9,19.969,66.391,66.391,0,0,1-7.9,15.667A43.3,43.3,0,0,1,863.9,517.04a37.625,37.625,0,0,1-15.636,5.826q-9.18,1.349-15.8-1.652a24.421,24.421,0,0,1-10.516-8.881,32.039,32.039,0,0,1-4.975-13.224,92.659,92.659,0,0,1-.69-20.472" transform="translate(-816.009 -356.995)" fill="#0253b3"/>
    <path id="Path_4819" data-name="Path 4819" d="M1076.247,626.755s9.824-6.363,10.481-12.3c0,0,7.07,2.152-6.982,19.749Z" transform="translate(-951.18 -490.721)" fill="#0253b3"/>
    <path id="Path_4820" data-name="Path 4820" d="M1102.107,602.965" transform="translate(-964.612 -484.755)" fill="#f7941d"/>
    <path id="Path_4821" data-name="Path 4821" d="M1066.512,602.719" transform="translate(-946.123 -484.627)" fill="#f7941d"/>
    <path id="Path_4822" data-name="Path 4822" d="M1016.66,664.718a11.771,11.771,0,0,0,4.01.036,4.972,4.972,0,0,1,.913-.053l.155-.116A14.839,14.839,0,0,1,1016.66,664.718Z" transform="translate(-920.23 -516.761)" fill="none"/>
    <path id="Path_4823" data-name="Path 4823" d="M1002.223,600.3a4.966,4.966,0,0,0-.913.053,11.771,11.771,0,0,1-4.01-.037c-4.066-.681-5.2-3.311-5.2-3.311l0-.006a13.014,13.014,0,0,1-1.649-2.579,29,29,0,0,1-2.308-6.862q-.782-3.74-1.289-7.2-1.91-13.007-2.78-22.729-.866-9.684-.778-16.005v-.048h0a1.012,1.012,0,0,0-1.981-.264h0c-.006.025-.012.05-.018.075s-.007.026-.01.039a70.469,70.469,0,0,0-1.792,10.281q-.162,2.069-.059,6.56t.535,10.607q.432,6.117,1.17,13.348T982.977,597q1.469,10.007,5.361,14.684t10.624,3.69a8.1,8.1,0,0,0,1.99-.585l-6.982-4.084A25.61,25.61,0,0,1,1002.223,600.3Z" transform="translate(-900.869 -452.355)" fill="#0253b3"/>
    <path id="Path_4824" data-name="Path 4824" d="M1021.181,675.149a9.663,9.663,0,0,0,.563-5.659q-.668-4.547-3.759-4.664a25.611,25.611,0,0,0-8.252,10.41l6.982,4.084a11.072,11.072,0,0,0,1.568-.819A7.947,7.947,0,0,0,1021.181,675.149Z" transform="translate(-916.631 -516.886)" fill="#0253b3"/>
    <path id="Path_4825" data-name="Path 4825" d="M1011.035,661.277a7.616,7.616,0,0,1-2.7-1.068,11.038,11.038,0,0,1-2.5-2.248l0,.006S1006.969,660.6,1011.035,661.277Z" transform="translate(-914.605 -513.32)"/>
    <path id="Path_4826" data-name="Path 4826" d="M1089.028,622.082s4.434-3.779,4.507-7.442C1093.535,614.64,1089.023,619.976,1089.028,622.082Z" transform="translate(-957.818 -490.819)" fill="#ef9b37"/>
    <path id="Path_4827" data-name="Path 4827" d="M1035.446,634.38s-1.4-5.795,0-8.522h-1.052l-.886-.11A16.874,16.874,0,0,0,1035.446,634.38Z" transform="translate(-928.966 -496.587)" opacity="0.2" style="mix-blend-mode: multiply;isolation: isolate"/>
    <path id="Path_4828" data-name="Path 4828" d="M1089.028,621.169s4.463-3.694,4.507-7.442c0,0-.665-.275-1.227-.522-.294-.13-.569-.265-.686-.32C1091.357,612.76,1091.892,618.382,1089.028,621.169Z" transform="translate(-957.818 -489.906)" opacity="0.2" style="mix-blend-mode: multiply;isolation: isolate"/>
    <path id="Path_4829" data-name="Path 4829" d="M993.962,475.961s4.85.008,8.908-6.732a74.048,74.048,0,0,0,14.022.579c9.173-.3,1.457,5.763,1.457,5.763s-1.4,2.861-7.982,3.138a92.718,92.718,0,0,1-14.336-.826l-1.887-.5Z" transform="translate(-908.44 -415.291)" fill="#0253b3"/>
    <path id="Path_4830" data-name="Path 4830" d="M1004.779,468.727s-2.747,4.975-7.143,6.374a16.29,16.29,0,0,0,5.634-6.838A10.872,10.872,0,0,0,1004.779,468.727Z" transform="translate(-910.348 -414.788)" fill="#404041" opacity="0.2" style="mix-blend-mode: multiply;isolation: isolate"/>
    <path id="Path_4831" data-name="Path 4831" d="M1012.782,434.3a8.824,8.824,0,0,0-3.369-.273c-1.811.222-5.876-1.875-6.347-2.316l1.377-1.477A91.6,91.6,0,0,0,1012.782,434.3Z" transform="translate(-913.169 -395.035)" fill="#404041" opacity="0.2"/>
    <path id="Path_4832" data-name="Path 4832" d="M1036.342,442.814a10.7,10.7,0,0,1-.04,2.546s-1.653.585-6.1-1.8a7,7,0,0,0-3.761-3.7S1035.312,442.786,1036.342,442.814Z" transform="translate(-925.312 -400.038)" fill="#404041" opacity="0.2"/>
    <rect id="Rectangle_1540" data-name="Rectangle 1540" width="9.746" height="9.746" rx="2.226" transform="translate(126.074 105.926) rotate(-21.553)" fill="#ef9b37"/>
    <g id="Group_9700" data-name="Group 9700" transform="translate(87.813 68.155)">
      <path id="Path_4833" data-name="Path 4833" d="M999.936,522.875c-.441-1.982-.073-2.946,1.423-3.882,10.627-6.65,21.383-13.08,32.442-18.992a.91.91,0,0,1,.275-.049,2.759,2.759,0,0,1-.948,3.557q-16.516,8.994-32.442,18.995C1000.477,522.634,1000.241,522.725,999.936,522.875Z" transform="translate(-999.265 -499.403)" fill="#ef9b37"/>
      <path id="Path_4834" data-name="Path 4834" d="M999.049,523.011l-.138-.62c-.482-2.166-.036-3.362,1.646-4.415,12.349-7.728,22.668-13.768,32.471-19.009a.932.932,0,0,1,.381-.1l.356-.06.216.314a3.256,3.256,0,0,1-1.151,4.23c-11.124,6.058-22.03,12.443-32.416,18.978a4.359,4.359,0,0,1-.518.267c-.086.039-.178.082-.278.131Zm34.2-23.029c-9.709,5.2-19.939,11.192-32.164,18.842a2.34,2.34,0,0,0-1.317,2.728c.04-.021.077-.042.112-.064,10.4-6.547,21.328-12.943,32.47-19.011A2.262,2.262,0,0,0,1033.252,499.982Z" transform="translate(-998.729 -498.811)" fill="#ef9b37"/>
    </g>
    <path id="Path_4835" data-name="Path 4835" d="M1048.919,628.486c-10.749,8.028-18.166,11.248-23.235,12.158l-.155.116q3.09.118,3.759,4.664a9.662,9.662,0,0,1-.563,5.658,7.946,7.946,0,0,1-2.9,3.353,11.072,11.072,0,0,1-1.568.819l.13.076s7.806-4.333,18.633-11.093,16-14.4,17.744-25.745A94.379,94.379,0,0,1,1048.919,628.486Z" transform="translate(-924.177 -492.819)" fill="#0253b3"/>
    <path id="Path_4836" data-name="Path 4836" d="M874.863,550.131h.039Z" transform="translate(-846.579 -457.311)" fill="#ef9b37"/>
    <path id="Path_4837" data-name="Path 4837" d="M883.274,582.892" transform="translate(-850.947 -474.328)"/>
    <path id="Path_4838" data-name="Path 4838" d="M837.418,532.672s3.96,6.308,8.676,8.026,2.874-4.126,2.874-4.126a65.215,65.215,0,0,1-5.707-4.9s3.031,5.392,3.055,5.706-4.584-3.728-6.574-6.3C839.741,531.075,837.133,529.9,837.418,532.672Z" transform="translate(-827.118 -447.286)" fill="#ef9b37"/>
    <path id="Path_4839" data-name="Path 4839" d="M873.167,524.857a14.2,14.2,0,0,1-6.4,2.515s-5.681.611-8.161,2.5a17.541,17.541,0,0,1-1.745,1.324c-.292.108-1.259.479-4.384-2.376s-4.173-4.24-4.968-4.665a1.389,1.389,0,0,0-1.975.907,1.359,1.359,0,0,0,.252.98,30.67,30.67,0,0,0,8.578,7.792,1.274,1.274,0,0,0,.191.1,4.664,4.664,0,0,0,3.825-.217,1.405,1.405,0,0,0,.4-.291,8.839,8.839,0,0,1,3.105-2.224c1.231-.278,7.336-1.351,8.129-1.49a1.264,1.264,0,0,0,.177-.045,15.979,15.979,0,0,0,5.062-2.89A3.917,3.917,0,0,1,873.167,524.857Z" transform="translate(-831.338 -443.747)" fill="#ef9b37"/>
    <path id="Path_4840" data-name="Path 4840" d="M841.361,557.69" transform="translate(-829.177 -461.238)" fill="#0253b3"/>
    <path id="Path_4841" data-name="Path 4841" d="M841.361,554.489s5.9-4.368,6.793-7.559c0,0-3.725-1.745-5.378-4.1,0,0,3.225,2.15-1.414,6.779Z" transform="translate(-829.177 -453.519)" fill="#ef9b37"/>
    <path id="Path_4842" data-name="Path 4842" d="M843.377,551.41s-2.019,4.495-2.016,7.537v-4.882Z" transform="translate(-829.177 -457.976)" fill="#0253b3"/>
    <path id="Path_4843" data-name="Path 4843" d="M850.332,547.482s-3.355-1.423-4.777-3.592c0,0,1.951,3.483,4.409,4.5Z" transform="translate(-831.356 -454.07)" opacity="0.3" style="mix-blend-mode: multiply;isolation: isolate"/>
    <path id="Path_4844" data-name="Path 4844" d="M849.6,532.585s3.5,5.3,5.957,5.982l-.25-1.084Z" transform="translate(-833.456 -448.198)" opacity="0.3" style="mix-blend-mode: multiply;isolation: isolate"/>
    <path id="Path_4845" data-name="Path 4845" d="M843.377,551.41a14.636,14.636,0,0,0-.716,6.506l-1.3,1.031A19.059,19.059,0,0,1,843.377,551.41Z" transform="translate(-829.177 -457.976)" opacity="0.3" style="mix-blend-mode: multiply;isolation: isolate"/>
    <g id="Group_9703" data-name="Group 9703" transform="translate(15.173 58.657)">
      <g id="Group_9702" data-name="Group 9702">
        <g id="Group_9701" data-name="Group 9701">
          <path id="Path_4846" data-name="Path 4846" d="M875.249,482.31a13.6,13.6,0,0,0-21.371,9.713,8.834,8.834,0,0,1-2.765,5.555l-1.673,1.53a3.336,3.336,0,0,0-1.011,1.816l.1.107c.074.053.149.1.221.16a2.618,2.618,0,0,1,.363.318,3.528,3.528,0,0,1,1.878,2.107c-.147-.442-.47.464-.183.859.158-.173.293-.217.446-.394l-1.344-.891c-.421-.461.6-1.987,1.058-2.409l.837-.765h0a13.456,13.456,0,0,1,1.632-1.576h0a11.2,11.2,0,0,0,2.7-6.184,11.339,11.339,0,1,1,18.92,9.553,11.567,11.567,0,0,1-2.308,1.709c.034.148.051.219.083.366a1.343,1.343,0,0,1,.235.549c.058.3.131.58.208.862.124.074.193.048.312.131a13.419,13.419,0,0,0,3-1.943A13.622,13.622,0,0,0,875.249,482.31Z" transform="translate(-848.021 -479.441)" fill="#ef9b37"/>
          <path id="Path_4847" data-name="Path 4847" d="M873.115,505.468l-.185-.128c-.01-.007-.01-.007-.048-.017a.917.917,0,0,1-.244-.1l-.13-.077-.039-.146c-.079-.291-.154-.582-.214-.888a.972.972,0,0,0-.167-.4l-.048-.065-.165-.72.254-.136a11.036,11.036,0,0,0,2.232-1.655,10.906,10.906,0,0,0,3.548-8.716,11.086,11.086,0,0,0-4.644-8.363,10.956,10.956,0,0,0-17.2,7.842,11.574,11.574,0,0,1-2.787,6.393l-.327.292a10.389,10.389,0,0,0-1.294,1.271l-.039.042-.837.765a4.244,4.244,0,0,0-.729.992,4.132,4.132,0,0,1,.844,1.418c0,.01.007.019.01.029l-.195.067.664.44-.279.323a1.7,1.7,0,0,1-.286.257,1.13,1.13,0,0,0-.166.144l-.31.341-.271-.372a1.165,1.165,0,0,1-.181-.781l-.691-.471a1.161,1.161,0,0,1-.057-1.218,3.1,3.1,0,0,0-.619-.375l-.112-.079a2.217,2.217,0,0,0-.31-.273c-.058-.045-.1-.075-.146-.106l-.136-.107-.233-.245.039-.192a3.716,3.716,0,0,1,1.125-2.017l1.674-1.53a8.458,8.458,0,0,0,2.645-5.317,13.973,13.973,0,0,1,21.963-9.979h0a14.091,14.091,0,0,1,5.893,10.635,13.258,13.258,0,0,1-7.607,13.119Zm-.377-2.133a1.749,1.749,0,0,1,.253.631c.043.221.1.434.15.644a12.529,12.529,0,0,0,2.749-1.8,13.164,13.164,0,0,0,4.283-10.522,13.346,13.346,0,0,0-5.583-10.071,13.224,13.224,0,0,0-20.779,9.448,9.218,9.218,0,0,1-2.885,5.793l-1.673,1.53a2.941,2.941,0,0,0-.848,1.41c.046.032.092.065.138.1a2.765,2.765,0,0,1,.351.3,3.856,3.856,0,0,1,.585.346,5.565,5.565,0,0,1,.8-1.038l.816-.746a11.263,11.263,0,0,1,1.366-1.343l.291-.255a10.8,10.8,0,0,0,2.571-5.942,11.71,11.71,0,1,1,19.546,9.868,12.5,12.5,0,0,1-2.133,1.623Zm-22.992-.807.077.051c-.027-.041-.054-.081-.083-.12A.238.238,0,0,0,849.746,502.528Z" transform="translate(-847.582 -479.047)" fill="#ef9b37"/>
        </g>
      </g>
    </g>
    <path id="Path_4848" data-name="Path 4848" d="M875.807,486.326a11.5,11.5,0,0,0-18.06,8.23,11.376,11.376,0,0,1-2.736,6.277,13.677,13.677,0,0,0-1.657,1.6l-.85.777a5.181,5.181,0,0,0-.916,1.292c.789.769,1.953,2.009,3.981,3.862,3.172,2.9,4.154,2.522,4.451,2.412a17.775,17.775,0,0,0,1.772-1.344c2.518-1.918,8.285-2.538,8.285-2.538a14.411,14.411,0,0,0,6.495-2.554c.027.059.06.113.09.17.1-.086.2-.17.291-.256A11.528,11.528,0,0,0,875.807,486.326Z" transform="translate(-834.49 -423.078)" fill="#ef9b37"/>
    <path id="Path_4849" data-name="Path 4849" d="M845.727,523.968s-1.375-1.747,1.537-3.95l.156,4.363Z" transform="translate(-831.276 -441.671)" fill="#ef9b37"/>
    <path id="Path_4850" data-name="Path 4850" d="M850.866,518.673s7.592,8.919,11.533,11.195l.9-.865Z" transform="translate(-834.114 -440.972)" opacity="0.25" style="mix-blend-mode: multiply;isolation: isolate"/>
    <path id="Path_4851" data-name="Path 4851" d="M897.07,503.454a8.009,8.009,0,0,1,0,1.092c-.019.346-.06.689-.112,1.029s-.135.674-.2,1.008c-.1.33-.189.659-.3.982a8.939,8.939,0,0,1-2.157,3.42,2.321,2.321,0,0,1-.367.342l-.389.316-.387.313-.425.257c-.286.164-.557.352-.853.491l-.9.38a5.047,5.047,0,0,1-.918.3l-.927.252c-.629.114-1.263.191-1.887.287.61-.178,1.222-.335,1.819-.527l.866-.364a4.715,4.715,0,0,0,.838-.405l.8-.468c.258-.166.485-.375.727-.558l.356-.282.31-.33.309-.327a1.865,1.865,0,0,0,.284-.345,7.69,7.69,0,0,0,1.465-3.176c.058-.286.1-.577.144-.862.016-.293.057-.58.055-.871a8.65,8.65,0,0,0-.02-.866,6.311,6.311,0,0,0-.1-.8l0-.016a1,1,0,0,1,1.962-.414A1.062,1.062,0,0,1,897.07,503.454Z" transform="translate(-853.009 -432.582)" fill="#fff" opacity="0.9"/>
    <path id="Path_4852" data-name="Path 4852" d="M1098.056,614.451" transform="translate(-962.508 -490.721)" fill="#ef9b37"/>
  </g>
</svg>
