<svg xmlns="http://www.w3.org/2000/svg" width="544.159" height="453.282" viewBox="0 0 544.159 453.282">
  <g id="Group_9715" data-name="Group 9715" transform="translate(-103.5 -577.5)">
    <path id="Path_150" data-name="Path 150" d="M556.11,354.92a53.224,53.224,0,0,1-1.56,8.7,74.632,74.632,0,0,1-7.86,18.78c-20.07,35-59.37,55.27-98.92,63.54s-80.38,6.47-120.73,8.32c-54.5,2.47-108.86,11.61-163.36,8.62A368.923,368.923,0,0,1,87.26,450.5c-120.37,0-61.52-183.82-54.6-253.51,3-30,6.48-61.49,23.61-86.33,20.27-29.37,56.16-44,91.27-50.4s71.24-6,106.16-13.37c57-12,112.19-44.27,169.74-35.07,56.45,9,102.26,62.77,102.23,119.94,0,40.13-18.21,80-7.76,120C527,286.45,559.61,317.17,556.11,354.92Z" transform="translate(91.287 567.308)" fill="#fff" opacity="0.497" style="isolation: isolate"/>
    <path id="Path_151" data-name="Path 151" d="M554.55,363.62a74.63,74.63,0,0,1-7.86,18.78c-20.07,35-59.37,55.27-98.92,63.54s-80.38,6.47-120.73,8.32c-54.5,2.47-108.86,11.61-163.36,8.62A368.92,368.92,0,0,1,87.26,450.5c-16.73-4.56-51.3-10.5-61.42-26-6.33-9.67-7.37-27.79-7.58-43.06,3.79.6,7.55,1.5,10.85,1.81,11.2,1.08,22.54,1.15,33.77,1.5q35.68,1.14,71.41,1.53,142.22,1.51,284.23-9.36Q486.65,371.68,554.55,363.62Z" transform="translate(91.287 567.308)" fill="#474b8c" opacity="0.24" style="isolation: isolate"/>
    <path id="Path_155" data-name="Path 155" d="M177.475,393.355c-4.771.852-9.5,1.958-14.332,2.424-3.132.307-6.589.463-8.862,2.642a2.979,2.979,0,0,0-1.008,1.8c-.132,1.508,1.446,2.559,2.853,3.113,4.109,1.624,8.58,2.09,12.987,2.372,7.186.457,14.4.463,21.589.469l21.451.021c6.331,0,13.361-.257,17.9-4.676a5.6,5.6,0,0,0,1.839-3.2c.251-2.016-1.278-3.91-3.126-4.753-3.2-1.462-7.986-1.158-11.473-1.532-4.532-.5-9.092-.778-13.652-.833A139.651,139.651,0,0,0,177.475,393.355Z" transform="translate(180.289 584.284)" fill="#474b8c" opacity="0.24" style="isolation: isolate"/>
    <g id="undraw_spread_love_r9jb" transform="translate(51.979 549.381)">
      <ellipse id="Ellipse_31" data-name="Ellipse 31" cx="44.346" cy="6.855" rx="44.346" ry="6.855" transform="translate(280.079 303.871)" fill="#0253b3"/>
      <path id="Path_161" data-name="Path 161" d="M569.876,471.164l44.681-51.114a35.6,35.6,0,1,0-50.891-49.782,35.6,35.6,0,0,0-49.782,50.891l49.71,50" transform="translate(-244.016 -221.149)" fill="#0253b3"/>
      <path id="Path_163" data-name="Path 163" d="M577.876,458.164l44.681-51.114a35.6,35.6,0,1,0-50.891-49.782,35.6,35.6,0,1,0-49.782,50.891l49.71,50" transform="translate(-246.433 -217.223)" fill="none" stroke="#3f3d56" stroke-miterlimit="10" stroke-width="2"/>
      <ellipse id="Ellipse_33" data-name="Ellipse 33" cx="44.346" cy="6.855" rx="44.346" ry="6.855" transform="translate(285.741 298.174)" fill="none" stroke="#3f3d56" stroke-miterlimit="10" stroke-width="2"/>
      <ellipse id="Ellipse_34" data-name="Ellipse 34" cx="34.911" cy="5.396" rx="34.911" ry="5.396" transform="translate(290.458 347.855)" fill="#0253b3"/>
      <ellipse id="Ellipse_35" data-name="Ellipse 35" cx="23.588" cy="3.646" rx="23.588" ry="3.646" transform="translate(301.78 390.688)" fill="#0253b3"/>
      <ellipse id="Ellipse_36" data-name="Ellipse 36" cx="34.911" cy="5.396" rx="34.911" ry="5.396" transform="translate(295.176 343.047)" fill="none" stroke="#3f3d56" stroke-miterlimit="10" stroke-width="2"/>
      <ellipse id="Ellipse_37" data-name="Ellipse 37" cx="23.588" cy="3.646" rx="23.588" ry="3.646" transform="translate(306.498 387.07)" fill="none" stroke="#3f3d56" stroke-miterlimit="10" stroke-width="2"/>
    </g>
  </g>
</svg>
