<svg xmlns="http://www.w3.org/2000/svg" width="752.194" height="783.26" viewBox="0 0 752.194 783.26">
  <g id="Group_9711" data-name="Group 9711" transform="translate(13.143 -197.003)">
    <g id="Group_3" data-name="Group 3" transform="matrix(0.999, -0.035, 0.035, 0.999, -14.062, 220.934)">
      <path id="Path_2" data-name="Path 2" d="M17.964,71.193S67.457-23.638,187.733,7.848C292,35.145,314.221,143.291,524.3,177.087c212.1,0,227.86,209.886,181.072,381.105s-361.984,267-482.631,150.178S21.571,416.045,5.718,379.911,17.964,71.193,17.964,71.193Z" transform="translate(0)" fill="rgba(24,164,224,0.24)"/>
    </g>
    <g id="undraw_decide_3iwx" transform="translate(59.674 351.606)">
      <circle id="Ellipse_38" data-name="Ellipse 38" cx="13.243" cy="13.243" r="13.243" transform="translate(104.795 6.881)" fill="#f1f1f1"/>
      <circle id="Ellipse_39" data-name="Ellipse 39" cx="8.354" cy="8.354" r="8.354" transform="translate(170.711 40.488)" fill="#f1f1f1"/>
      <circle id="Ellipse_40" data-name="Ellipse 40" cx="5.966" cy="5.966" r="5.966" transform="translate(229.639 68.005)" fill="#f1f1f1"/>
      <circle id="Ellipse_41" data-name="Ellipse 41" cx="13.243" cy="13.243" r="13.243" transform="translate(503.013 6.881)" fill="#f1f1f1"/>
      <circle id="Ellipse_42" data-name="Ellipse 42" cx="8.354" cy="8.354" r="8.354" transform="translate(446.874 40.488)" fill="#f1f1f1"/>
      <circle id="Ellipse_43" data-name="Ellipse 43" cx="5.966" cy="5.966" r="5.966" transform="translate(392.722 68.005)" fill="#f1f1f1"/>
      <ellipse id="Ellipse_44" data-name="Ellipse 44" cx="70.899" cy="8.077" rx="70.899" ry="8.077" transform="translate(252.341 461.396)" fill="#fcc497"/>
      <path id="Path_166" data-name="Path 166" d="M610.692,458.656l-479.181-3.229,4.836-328.381,479.19,7.057Z" transform="translate(-35.233 -34.027)" fill="#f1f1f1"/>
      <path id="Path_167" data-name="Path 167" d="M774.685,2.447l-235.239,95V421.654l235.239,99.524Z" transform="translate(-145.359 -0.391)" fill="#384174" stroke="#384174" stroke-miterlimit="10" stroke-width="2"/>
      <line id="Line_8" data-name="Line 8" x2="168.889" y2="39.206" transform="translate(413.69 351.899)" fill="none" stroke="#fff" stroke-miterlimit="10" stroke-width="2"/>
      <line id="Line_9" data-name="Line 9" x2="168.889" y2="25.635" transform="translate(413.69 326.264)" fill="none" stroke="#fff" stroke-miterlimit="10" stroke-width="2"/>
      <line id="Line_10" data-name="Line 10" x2="168.889" y2="18.095" transform="translate(413.69 299.121)" fill="none" stroke="#fff" stroke-miterlimit="10" stroke-width="2"/>
      <path id="Path_168" data-name="Path 168" d="M718.538,283.285v39.206l-135.715-9.047V283.285Z" transform="translate(-157.069 -57.206)" fill="#fcc497"/>
      <path id="Path_169" data-name="Path 169" d="M718.538,283.285v39.206l-135.715-9.047v-1.508l132.7,7.54v-36.19Z" transform="translate(-157.069 -76.206)" opacity="0.2"/>
      <path id="Path_170" data-name="Path 170" d="M1,2.447l235.238,95V421.654L1,521.178Z" transform="translate(0 -0.391)" fill="#384174" stroke="#384174" stroke-miterlimit="10" stroke-width="2"/>
      <line id="Line_11" data-name="Line 11" x1="168.889" y2="39.206" transform="translate(47.746 351.899)" fill="none" stroke="#fff" stroke-miterlimit="10" stroke-width="2"/>
      <line id="Line_12" data-name="Line 12" x1="168.889" y2="25.635" transform="translate(47.746 326.264)" fill="none" stroke="#fff" stroke-miterlimit="10" stroke-width="2"/>
      <line id="Line_13" data-name="Line 13" x1="168.889" y2="18.095" transform="translate(47.746 299.121)" fill="none" stroke="#fff" stroke-miterlimit="10" stroke-width="2"/>
      <path id="Path_171" data-name="Path 171" d="M93.95,283.285v39.206l135.715-9.047V283.285Z" transform="translate(-25.093 -76.206)" fill="#fcc497"/>
      <path id="Path_172" data-name="Path 172" d="M93.95,283.285v39.206l135.715-9.047v-1.508l-132.7,7.54v-36.19Z" transform="translate(-25.093 -76.206)" opacity="0.2"/>
      <line id="Line_14" data-name="Line 14" x2="117.981" y2="1.451" transform="translate(258.156 123.306)" fill="none" stroke="#3f3d56" stroke-miterlimit="10" stroke-width="2"/>
      <path id="Path_173" data-name="Path 173" d="M357.428,172.379l1.01-1.057-5.213-4.965,5.334-4.837-.983-1.081-6.494,5.892Z" transform="translate(-94.508 -43.042)" fill="#3f3d56"/>
      <path id="Path_174" data-name="Path 174" d="M507.769,174.2l-.983-1.082,5.333-4.835-5.212-4.967,1.009-1.056,6.348,6.05Z" transform="translate(-136.542 -43.535)" fill="#3f3d56"/>
      <circle id="Ellipse_45" data-name="Ellipse 45" cx="9.872" cy="9.872" r="9.872" transform="translate(307.274 114.159)" fill="#3f3d56"/>
      <path id="Path_175" data-name="Path 175" d="M583.9,692.069s-2.692,11.667-1.795,16.154.9,14.359.9,14.359H585.7v-10.77s7.18,3.59,8.975,8.975,20.642,3.59,21.539,1.795-8.975-5.385-8.975-5.385l-8.077-24.231Z" transform="translate(-279.957 -254.455)" fill="#2f2e41"/>
      <path id="Path_176" data-name="Path 176" d="M576.028,541.767s4.487,16.154,4.487,22.436-3.59,87.053,0,87.053,17.949,1.795,18.847-1.795-1.795-36.8,0-40.386,14.359-79.874,13.462-80.771S580.515,524.715,576.028,541.767Z" transform="translate(-278.366 -210.053)" fill="#2f2e41"/>
      <path id="Path_177" data-name="Path 177" d="M572.138,524.782s-8.077,21.539-.9,21.539,11.667-6.282,17.052-4.487,21.539-20.642,21.539-20.642Z" transform="translate(-276.27 -208.325)" fill="#3f3d56"/>
      <circle id="Ellipse_46" data-name="Ellipse 46" cx="14.359" cy="14.359" r="14.359" transform="translate(315.163 197.543)" fill="#ffb9b9"/>
      <path id="Path_178" data-name="Path 178" d="M621.539,388.873s-6.282,20.642-4.487,23.334-17.052-.9-17.052-.9,6.282-17.052,5.385-20.642S621.539,388.873,621.539,388.873Z" transform="translate(-284.837 -172.483)" fill="#ffb9b9"/>
      <path id="Path_179" data-name="Path 179" d="M601.535,407.651s-8.077-2.692-10.77,0-12.564,66.412-18.847,72.694S561.15,495.6,566.534,496.5s49.36,6.282,51.155,3.59,1.346-29.167.449-35.45S610.51,408.549,601.535,407.651Z" transform="translate(-275.154 -177.35)" fill="#0253b3"/>
      <path id="Path_180" data-name="Path 180" d="M436.869,435.47l3.59,8.975,8.077-6.283-.9-6.282Z" transform="translate(-117.668 -116.321)" fill="#ffb9b9"/>
      <path id="Path_181" data-name="Path 181" d="M593.769,426.835s-.449-11.218-5.833,3.141-17.052,33.206-7.18,47.565,10.145,20.625,14.808,20.193,19.3,4.936,19.3,3.141-17.052-29.616-17.052-29.616a16.522,16.522,0,0,1,4.487-14.359C608.577,450.618,605.436,429.528,593.769,426.835Z" transform="translate(-278.606 -181.727)" opacity="0.1"/>
      <path id="Path_182" data-name="Path 182" d="M598.275,412.984s-9.872-1.795-15.257,12.564-17.052,33.206-7.18,47.565,14.9,28.685,19.568,28.253,14.535-3.124,14.535-4.919-17.052-29.616-17.052-29.616a16.523,16.523,0,0,1,4.487-14.359C603.66,446.19,609.942,415.677,598.275,412.984Z" transform="translate(-277.279 -179.094)" fill="#0253b3"/>
      <path id="Path_183" data-name="Path 183" d="M597.112,353.4c-7.384-1.043-14.664,3.636-18.748,9.876s-5.563,13.793-6.639,21.172a25.3,25.3,0,0,1-1.519,6.516c-1.785,4.1-5.826,7.195-6.484,11.617-.416,2.8.626,5.575,1.17,8.35,1.446,7.371-.7,15.124-4.627,21.525-1.755,2.858-4.313,5.745-7.665,5.847l7.024,1.089a12.262,12.262,0,0,1-5.813,5.94,35.591,35.591,0,0,0,31.131-33.9c.1-2.543-.022-5.272,1.359-7.409,1.2-1.849,3.281-2.875,5.176-4,6.512-3.849,11.953-10.231,12.822-17.745.382-3.3-.122-6.608-.253-9.909-.137-3.478,5.7-5.826,6.49-9.156C611.734,358.165,601.759,354.061,597.112,353.4Z" transform="translate(-272.041 -162.99)" fill="#2f2e41"/>
    </g>
    <g id="Group_35" data-name="Group 35" transform="translate(2.153 22.472)">
      <g id="Group_30" data-name="Group 30" transform="translate(504.745 434.697)">
        <path id="Path_944" data-name="Path 944" d="M341,250.4a49.04,49.04,0,0,1-7.588,26.335,46.779,46.779,0,0,1-3.414,4.733,47.38,47.38,0,0,1-10,9.175q-1.526,1.044-3.138,1.957a45.233,45.233,0,0,1-18.131,5.764,43.913,43.913,0,0,1-4.4.215,45.119,45.119,0,0,1-12.044-1.626,43.778,43.778,0,0,1-6.516-2.335q-1.618-.721-3.163-1.569a45.834,45.834,0,0,1-7.03-4.7q-1.536-1.234-2.961-2.6a49.309,49.309,0,0,1-9.286-58.366c10.2-19.358,31.82-29.107,52.507-23.675S341,228.367,341,250.4Z" transform="translate(-247.648 -202.215)" fill="#f1f1f1"/>
        <path id="Path_945" data-name="Path 945" d="M304.673,283.193s4.88,13.557,1.089,21.146,5.964,16.266,5.964,16.266,25.484-13.013,22.23-19.52-8.675-15.181-7.591-20.6Z" transform="translate(-271.311 -235.59)" fill="#ffb8b8"/>
        <circle id="Ellipse_185" data-name="Ellipse 185" cx="17.351" cy="17.351" r="17.351" transform="translate(26.49 24.577)" fill="#ffb8b8"/>
        <path id="Path_946" data-name="Path 946" d="M300.466,337.012a51.359,51.359,0,0,1-7.483-2.6l.465-13.172,4.879-10.848a22.685,22.685,0,0,0,3.506,2.259c.3.162.594.317.922.472,4.576,2.211,12.051,4.156,19.3-1.267a27.589,27.589,0,0,0,6.667-7.5l13.53,7.666.711,8.307.823,9.665q-1.753,1.162-3.6,2.177a53.142,53.142,0,0,1-20.823,6.413c-1.661.162-3.351.239-5.055.239A53.386,53.386,0,0,1,300.466,337.012Z" transform="translate(-268.63 -242.46)" fill="#575a89"/>
        <path id="Path_947" data-name="Path 947" d="M298.286,301.44v.021l-.683,7.082-.359,3.745-.527,5.568-1.76,18.317a51.363,51.363,0,0,1-7.483-2.6q-1.858-.8-3.633-1.746a52.8,52.8,0,0,1-8.074-5.23l-1.929-8.906.147-.1Z" transform="translate(-260.289 -240.632)" fill="#ed9b64"/>
        <path id="Path_948" data-name="Path 948" d="M350.833,329.5a53.142,53.142,0,0,1-20.823,6.413c.4-6.589.972-12.953,1.626-18.619.338-2.907.693-5.625,1.07-8.1,1.176-7.961,2.442-13.369,3.351-14.1l6,3.958,24.4,8.673-.529,9.391a53.822,53.822,0,0,1-11.488,10.208Q352.685,328.49,350.833,329.5Z" transform="translate(-280.267 -238.805)" fill="#ed9b64"/>
        <path id="Path_949" data-name="Path 949" d="M275.171,332.949q-1.763-1.373-3.4-2.894l.929-6.012.693-.1,3.1-.443,6.751,14.678a52.8,52.8,0,0,1-8.074-5.23Z" transform="translate(-257.078 -247.971)" fill="#ed9b64"/>
        <path id="Path_950" data-name="Path 950" d="M378,316.523a52.121,52.121,0,0,1-3.921,5.266A53.82,53.82,0,0,1,362.594,332q-1.753,1.162-3.6,2.177l-.64-2.795,3.421-9.046,4.167-11.017,8.673,1.089A50.8,50.8,0,0,1,378,316.523Z" transform="translate(-293.37 -244.463)" fill="#ed9b64"/>
        <path id="Path_951" data-name="Path 951" d="M326.568,241.287a20.27,20.27,0,0,0-11.528-8.814l-3.525,2.82L312.885,232a18.656,18.656,0,0,0-3.484-.2l-3.172,4.078,1.313-3.939a20.076,20.076,0,0,0-13.849,8.238c-4.037,5.821-4.718,13.916-.747,19.782,1.089-3.35,2.413-6.493,3.5-9.843a9.915,9.915,0,0,0,2.583.013l1.326-3.094.37,2.963c4.11-.358,10.207-1.144,14.1-1.864l-.379-2.276,2.267,1.889c1.193-.275,1.9-.524,1.844-.714,2.9,4.672,5.769,7.656,8.667,12.327C328.327,252.779,330.269,247.3,326.568,241.287Z" transform="translate(-266.042 -213.619)" fill="#2f2e41"/>
        <ellipse id="Ellipse_186" data-name="Ellipse 186" cx="1.175" cy="2.349" rx="1.175" ry="2.349" transform="translate(55.984 38.77)" fill="#ffb8b8"/>
      </g>
    </g>
    <g id="Group_29" data-name="Group 29" transform="translate(153.097 451.62)">
      <path id="Path_966" data-name="Path 966" d="M980.407,569.268a45.167,45.167,0,0,1-17.213,35.649q-1.163.91-2.384,1.743-.313.214-.626.411c-.758.5-1.527.964-2.308,1.4q-.469.267-.938.517c-.063.035-.122.065-.185.095-.4.214-.8.423-1.2.619a42.2,42.2,0,0,1-14.587,4.127q-2.033.2-4.108.2a42.253,42.253,0,0,1-11.237-1.511,41.066,41.066,0,0,1-5.52-1.921l-.561-.241q-1.319-.589-2.586-1.266l-.364-.2q-1.38-.74-2.7-1.582a43.655,43.655,0,0,1-3.865-2.784q-.946-.75-1.84-1.57c-.313-.273-.619-.562-.92-.845a45.1,45.1,0,0,1-3.327-3.536c-.417-.493-.822-.993-1.215-1.505a45.769,45.769,0,0,1-1.8-53.1A42.944,42.944,0,0,1,949.735,526.5c18.239,5.8,30.674,23.141,30.673,42.766Z" transform="translate(-893.3 -524.499)" fill="#f1f1f1"/>
      <circle id="Ellipse_188" data-name="Ellipse 188" cx="7.262" cy="7.262" r="7.262" transform="translate(49.614 50.699)" fill="#2f2e41"/>
      <path id="Path_969" data-name="Path 969" d="M992.064,610.646a7.263,7.263,0,0,1,6.393,10.709,7.26,7.26,0,1,0-12.062-7.978,7.244,7.244,0,0,1,5.67-2.731Z" transform="translate(-933.52 -559.514)" fill="#2f2e41"/>
      <circle id="Ellipse_189" data-name="Ellipse 189" cx="21.333" cy="21.333" r="21.333" transform="translate(23.492 17.505)" fill="#2f2e41"/>
      <path id="Path_970" data-name="Path 970" d="M941.39,564a21.329,21.329,0,0,1,29.565-2.237c-.174-.166-.348-.333-.528-.494a21.333,21.333,0,1,0-28.347,31.887c.181.161.367.313.552.467A21.329,21.329,0,0,1,941.391,564Z" transform="translate(-912.442 -538.17)" fill="#2f2e41"/>
      <circle id="Ellipse_190" data-name="Ellipse 190" cx="13.739" cy="13.739" r="13.739" transform="translate(30.991 31.52)" fill="#a0616a"/>
      <path id="Path_971" data-name="Path 971" d="M954.771,607.308s1.808,16.633-1.085,18.44,16.632,4.339,16.632,4.339-2.893-18.079,4.339-22.779Z" transform="translate(-919.721 -559.259)" fill="#a0616a"/>
      <path id="Path_972" data-name="Path 972" d="M975.282,644.52v5.253c-.858.541-1.727,1.044-2.611,1.52q-.53.29-1.061.56v.1h-.21c-.452.231-.9.457-1.361.67a48.678,48.678,0,0,1-6.183,2.408,49.568,49.568,0,0,1-10.311,2.06q-2.3.212-4.646.212a49.788,49.788,0,0,1-12.706-1.635,47.837,47.837,0,0,1-6.242-2.08l-.635-.261q-1.491-.637-2.924-1.371l-.412-.212q-1.56-.8-3.049-1.713a49.423,49.423,0,0,1-4.37-3.013q-1.07-.812-2.081-1.7c-.354-.3-.7-.609-1.041-.914a49.815,49.815,0,0,1-3.762-3.827,17.567,17.567,0,0,1,.772-3.212l.007-.006a6.657,6.657,0,0,1,.354-.8c1.583-2.917,4.442-3.638,8-3.792,2-.087,4.22.006,6.569-.019,1.238-.006,2.512-.051,3.8-.167,8.087-.721,6.615-5.421,6.984-7.951.36-2.453,2.6-.328,2.755-.187l.006.006a28.948,28.948,0,0,0,14.675,2.536h.006a25.629,25.629,0,0,1,2.6-.193c2.277-.026,1.78.618,1,1.146a10.393,10.393,0,0,1-1.2.663s-.366,2.169-.733,5.427c-.354,3.116,5.712,4.577,6.216,4.687a.064.064,0,0,0,.033.013,12.406,12.406,0,0,1,6.733.167,7.9,7.9,0,0,1,5.025,5.62Z" transform="translate(-902.952 -566.097)" fill="#0253b3"/>
      <path id="Path_973" data-name="Path 973" d="M934.562,656.273c-.019.586-.051,1.131-.087,1.635l-.625-.261q-1.467-.637-2.877-1.371l-.405-.212q-1.535-.8-3-1.713a15.03,15.03,0,0,1,.167-1.532,28.03,28.03,0,0,0-2.253-15.727c-.174-.354-.276-.547-.276-.547s2.53-2.169,6.142,0a2.392,2.392,0,0,1,.6.528C934.343,639.908,934.813,650.132,934.562,656.273Z" transform="translate(-906.968 -571.449)" fill="#2f2e41"/>
      <path id="Path_974" data-name="Path 974" d="M997.218,659.808c-.006.219-.019.444-.032.67a47.417,47.417,0,0,1-6.084,2.408l-.123-3.077-.464-12.218a1.938,1.938,0,0,1,.225-1.017,1.973,1.973,0,0,1,1.76-1.073h4.416c.219,0,.373.444.477,1.249A98.357,98.357,0,0,1,997.218,659.808Z" transform="translate(-934.758 -574.985)" fill="#2f2e41"/>
      <path id="Path_975" data-name="Path 975" d="M797.018,443.487V457.23H800.2l4.049-4.339-.542,4.339h14.065l-.87-4.339,1.74,4.339h2.242V443.487Z" transform="translate(-764.053 -414.491)" fill="#2f2e41"/>
      <ellipse id="Ellipse_191" data-name="Ellipse 191" cx="1.085" cy="1.988" rx="1.085" ry="1.988" transform="translate(31.218 40.613)" fill="#a0616a"/>
      <ellipse id="Ellipse_192" data-name="Ellipse 192" cx="1.085" cy="1.988" rx="1.085" ry="1.988" transform="translate(56.178 40.613)" fill="#a0616a"/>
      <path id="Path_976" data-name="Path 976" d="M1010.237,657.494q-1.294.986-2.652,1.887-.348.232-.7.444c-.844.541-1.7,1.044-2.569,1.52q-.521.29-1.044.56V651.676s1.4,1.113,3.611,2.968C1007.862,655.46,1009,656.426,1010.237,657.494Z" transform="translate(-940.195 -577.183)" fill="#0253b3"/>
    </g>
  </g>
</svg>
