<svg xmlns="http://www.w3.org/2000/svg" width="256.985" height="308.06" viewBox="0 0 256.985 308.06">
  <g id="Group_9704" data-name="Group 9704" transform="translate(0)">
    <path id="Path_4797" data-name="Path 4797" d="M1069.807,514.57s14.109-.407,18.369-28.882c0,0,1.415,33.907-19.867,57.027a3.171,3.171,0,0,0-.22.338C1067.574,543.791,1073.5,541.634,1069.807,514.57Z" transform="translate(-843.654 -371.11)" fill="#ef9b37"/>
    <path id="Path_4798" data-name="Path 4798" d="M1076.062,511.823s3.065,11.847-8.944,32.149c0,0,20.954-18.6,20.954-58.285C1088.073,485.688,1086.573,503.485,1076.062,511.823Z" transform="translate(-843.551 -371.11)" fill="#404041" opacity="0.3" style="mix-blend-mode: multiply;isolation: isolate"/>
    <path id="Path_4799" data-name="Path 4799" d="M826.346,604.884s3.4-45.412,22.019-50.185l-3.826-6s-27.418,34.422-28.127,56.72S826.346,604.884,826.346,604.884Z" transform="translate(-816.049 -378.021)" fill="#0253b3"/>
    <path id="Path_4800" data-name="Path 4800" d="M828.663,691.979c-.324-.348-.628-.714-.933-1.078C828.033,691.268,828.343,691.628,828.663,691.979Z" transform="translate(-817.295 -393.618)"/>
    <path id="Path_4801" data-name="Path 4801" d="M1100.876,680.528c-.034.093-.066.187-.1.279C1100.809,680.715,1100.843,680.622,1100.876,680.528Z" transform="translate(-847.242 -392.48)"/>
    <path id="Path_4802" data-name="Path 4802" d="M829.039,692.388c-.086-.093-.175-.183-.261-.276C828.864,692.2,828.952,692.3,829.039,692.388Z" transform="translate(-817.41 -393.751)"/>
    <path id="Path_4803" data-name="Path 4803" d="M944.311,414.932l21.7,0,54.772,0c16.952.019,27.992,10.753,28.017,27.668q.131,87.251.009,174.5a33.571,33.571,0,0,1-1.713,11c-.027.078-.054.155-.083.232-.147.41-.312.807-.476,1.2a25.085,25.085,0,0,1-3.747,6.208c-.253.3-.5.6-.773.893-.07.078-.143.151-.215.228a26.89,26.89,0,0,1-10.437,6.585c-.328.119-.662.226-1,.329-.084.025-.166.053-.25.077s-.164.044-.245.067q-1.172.319-2.4.548c-.189.034-.377.067-.566.1-.134.022-.271.043-.406.063a34.212,34.212,0,0,1-4.764.332q-38.622.068-77.243.075h-.353q-38.622-.011-77.243-.075a34.214,34.214,0,0,1-4.764-.332c-.135-.021-.272-.041-.406-.063-.189-.029-.378-.062-.565-.1q-1.23-.229-2.4-.548c-.082-.023-.165-.043-.246-.067s-.167-.052-.25-.077c-.336-.1-.67-.21-1-.329a26.89,26.89,0,0,1-10.437-6.585c-.071-.077-.145-.15-.216-.228-.269-.288-.52-.591-.773-.893a25.088,25.088,0,0,1-3.747-6.208c-.164-.4-.329-.792-.476-1.2-.029-.077-.055-.154-.083-.232a33.551,33.551,0,0,1-1.712-11q-.087-87.251.008-174.5c.025-16.915,11.066-27.65,28.018-27.668l54.771,0,21.7,0m0-12.965h0l-21.7,0-54.771,0c-11.817.013-21.994,3.892-29.446,11.219-7.53,7.4-11.52,17.569-11.538,29.4-.075,50.437-.078,104.266-.008,174.534a46.569,46.569,0,0,0,2.429,15.24l.021.062.022.063.016.045.063.174h0c.246.69.486,1.27.679,1.735l.029.068.021.05.021.049a38.106,38.106,0,0,0,5.687,9.4l.033.04.034.04.069.083c.275.328.648.773,1.1,1.261q.15.163.3.321l-.017-.017.047.05.047.05a39.807,39.807,0,0,0,15.382,9.809c.5.18,1.014.352,1.626.539l.052.016c.137.044.269.083.4.121s.289.081.435.119c1.124.306,2.283.571,3.445.786l.039.007.038.007c.265.047.531.093.8.135l.424.066.072.012.062.009.062.009a47.06,47.06,0,0,0,6.58.463c24.257.044,49.529.068,77.262.075h.357c27.736-.007,53.01-.031,77.266-.075a47.057,47.057,0,0,0,6.58-.463l.062-.009.062-.009.072-.012.42-.065c.267-.043.534-.089.8-.136l.039-.007.038-.007c1.165-.216,2.325-.481,3.45-.788h0c.142-.037.278-.074.41-.112s.286-.085.427-.129l.044-.013c.612-.187,1.129-.359,1.627-.54a39.792,39.792,0,0,0,15.379-9.807l.049-.052.025-.027c.111-.117.211-.222.307-.326.451-.488.824-.933,1.1-1.261l.069-.083.034-.04.033-.04a38.083,38.083,0,0,0,5.687-9.4l.021-.049.021-.05.027-.065c.193-.467.434-1.047.681-1.738l.063-.176.022-.062.036-.105a46.569,46.569,0,0,0,2.429-15.24c.069-70.3.067-124.13-.008-174.534-.018-11.828-4.008-21.994-11.537-29.4-7.451-7.326-17.629-11.206-29.432-11.219l-54.784,0-21.7,0Z" transform="translate(-817.193 -361.927)" fill="#527fa3"/>
    <path id="Path_4804" data-name="Path 4804" d="M1090.041,613.9s-3.118-1.254-5.919-2.749c-6.175-3.3-10.579-5.035-23.894,2.749,0,0-16.81,11.938-28.24,9.939l-9.849,18.854s21.88-1.79,37.751-15.74c7.373-6.48,17.811-9.627,21.8.734" transform="translate(-838.617 -384.565)" fill="#ef9b37"/>
    <path id="Path_4805" data-name="Path 4805" d="M1083.091,485.688s1.144,32.313-20.017,57.191-42.035,35.459-40.606,86.359l13.439-2.86s-6.005-10.581-2.573-21.733,5.719-16.586,24.02-30.883,27.738-29.168,31.17-40.034S1094.529,489.691,1083.091,485.688Z" transform="translate(-838.646 -371.11)" fill="#0253b3"/>
    <path id="Path_4806" data-name="Path 4806" d="M1046.289,451.8a43.129,43.129,0,0,1-.851,5.384,46.692,46.692,0,0,1-3.762,10.566q18.755-.3,25.959-1.36l1.8-.264q3.6-.529,2.867-5.531-.852-5.8-7.241-8.949T1046.452,446A22.328,22.328,0,0,1,1046.289,451.8Z" transform="translate(-840.76 -366.757)" fill="none"/>
    <path id="Path_4807" data-name="Path 4807" d="M983.847,517.056c-.176.031-.35.068-.527.1C983.5,517.121,983.672,517.093,983.847,517.056Z" transform="translate(-834.36 -374.551)" fill="#fff"/>
    <path id="Path_4808" data-name="Path 4808" d="M994.567,483.526c-.711.174-1.63-.372-2.415-.256q4.769-.686,7.13,2.221a16.064,16.064,0,0,1,3.105,7.923q1.116,7.606-1.238,12.445a17.621,17.621,0,0,1-6.276,7.358,20.535,20.535,0,0,1-6.883,2.918,36.865,36.865,0,0,0,17.255-8.117q8.293-6.835,18.453-19.773c-17.858.169-27.12-5.754-27.12-5.754A11.164,11.164,0,0,1,994.567,483.526Z" transform="translate(-834.872 -370.759)" fill="#0253b3"/>
    <path id="Path_4809" data-name="Path 4809" d="M991.294,469.651q1.087,7.4,5.533,11.245a29.874,29.874,0,0,1-5.677-12.4C991.195,468.879,991.237,469.267,991.294,469.651Z" transform="translate(-835.219 -369.224)" fill="#fff"/>
    <path id="Path_4810" data-name="Path 4810" d="M982.572,517.276c.041-.006.079-.006.12-.012.183-.028.362-.07.546-.1-.182.033-.363.07-.545.1C982.652,517.266,982.613,517.27,982.572,517.276Z" transform="translate(-834.278 -374.562)" fill="#fff"/>
    <path id="Path_4811" data-name="Path 4811" d="M1075.8,447.413a26.5,26.5,0,0,0-4.06-10.951,24.523,24.523,0,0,0-9.769-8.067,95.6,95.6,0,0,0-10.139-4.337q-6.816-2.572-17.352-6.138a118.408,118.408,0,0,1-14.22-5.678q-5.4-2.679-7.241-5.476l-1.659-.166q-6.812,13.47-5.9,19.668a3.441,3.441,0,0,0,.406,1.371c26.05-6.356,35.551,6.047,36.6,14.041q12.216,2.5,18.609,5.646t7.241,8.949q.735,5-2.867,5.531l-1.8.264q-7.2,1.058-25.959,1.36a46.7,46.7,0,0,0,3.762-10.566,43.083,43.083,0,0,0,.851-5.384,71.7,71.7,0,0,1-4.055,14.556,10.97,10.97,0,0,1-1.385,2.522L1025.6,479.922q9.636.223,17.857-.17t14.821-1.359q7.8-1.146,11.473-5.363a27.339,27.339,0,0,0,5.322-10.387A35.1,35.1,0,0,0,1075.8,447.413Z" transform="translate(-836.777 -362.436)" fill="#0253b3"/>
    <path id="Path_4812" data-name="Path 4812" d="M999.712,505.94q2.356-4.841,1.239-12.445a16.065,16.065,0,0,0-3.106-7.923q-2.361-2.906-7.13-2.221l-.043.007a19.494,19.494,0,0,0-7.808,3.19,18.255,18.255,0,0,0-6.362,7.474q-2.355,4.842-1.268,12.243,1.663,11.324,10.16,10.152c.04-.006.077-.009.117-.015.176-.026.353-.062.53-.093s.34-.063.511-.094a20.537,20.537,0,0,0,6.883-2.918A17.621,17.621,0,0,0,999.712,505.94Z" transform="translate(-833.435 -370.839)" fill="#0253b3"/>
    <path id="Path_4813" data-name="Path 4813" d="M1046.857,451.8a22.324,22.324,0,0,0,.163-5.8A43.4,43.4,0,0,1,1046.857,451.8Z" transform="translate(-841.328 -366.757)" fill="#f3931b"/>
    <path id="Path_4814" data-name="Path 4814" d="M991.713,452.713a39.906,39.906,0,0,1,5.54-13.075,28.1,28.1,0,0,1,1.934-2.837l2.9-3.9a27.8,27.8,0,0,1,2.162-2.667s-16.693,15.687-13.16,34.064A36.139,36.139,0,0,1,991.713,452.713Z" transform="translate(-835.158 -365.028)" fill="#f3931b"/>
    <path id="Path_4815" data-name="Path 4815" d="M1036.667,464.414c1.8-2.9,3.435-9,4.055-14.556a43.375,43.375,0,0,0,.163-5.8c-1.048-7.994-10.549-20.4-36.6-14.041a27.813,27.813,0,0,0-2.163,2.667l-2.9,3.9a28.12,28.12,0,0,0-1.934,2.837,39.908,39.908,0,0,0-5.54,13.075,36.136,36.136,0,0,0-.622,11.582c.641,3.508.925,8.105,5.677,12.4,0,0,9.359,5.983,27.217,5.814l11.262-15.362C1035.851,466.159,1036.158,465.232,1036.667,464.414Zm-7.338-6.5a30.954,30.954,0,0,1-7.348,7.72q-19.931.681-21.426-9.525a14.292,14.292,0,0,1,1.285-7.955,24.526,24.526,0,0,1,5.047-7.382,11.861,11.861,0,0,1,6.605-3.73,15.555,15.555,0,0,1,6.95.716,16.31,16.31,0,0,1,6.622,4.035,13.455,13.455,0,0,1,3.605,7.85A12.328,12.328,0,0,1,1029.328,457.914Z" transform="translate(-835.193 -364.812)" fill="#ef9b37"/>
    <path id="Path_4816" data-name="Path 4816" d="M1042.531,443.472s-23.6-5.436-36.6-14.041l9.977-6.5,20.727,1.2s13.628,10.082,10.514,14.869S1042.531,443.472,1042.531,443.472Z" transform="translate(-836.84 -364.227)" fill="#0253b3"/>
    <path id="Path_4817" data-name="Path 4817" d="M1039.153,470.433s-1.7,4.241-12.764,16.49l-7.707-5.105L1031,474.907Z" transform="translate(-838.238 -369.437)" fill="#f3931b"/>
    <path id="Path_4818" data-name="Path 4818" d="M817.25,577.025s2.353-13.539,11.021-23.04q-1.213,6.72-1.781,12.791a92.762,92.762,0,0,0,.385,22.116q1.939,13.2,7.232,21.418a35.06,35.06,0,0,0,12.73,12.233,42.509,42.509,0,0,0,16.147,4.884,70.636,70.636,0,0,0,17.312-.4,76.525,76.525,0,0,0,26.959-9.169,61.16,61.16,0,0,0,19.976-17.75A72.677,72.677,0,0,0,937.577,580.1q3.062-9.745,3.125-16.3.206-5.55-.327-14.054t-2.141-25.027L927.6,423.078q-1.279-12.887-1.686-21.927a128.063,128.063,0,0,1,.18-16.17,134.6,134.6,0,0,1,1.847-13.861q.911-4.865,2.239-10.54a4.633,4.633,0,0,1,5.509-3.474h0q-.27,5.151-.074,14.112t1.563,23.171q1.366,14.207,4.426,35.012a129.761,129.761,0,0,0,5.425,23.727q3.337,9.526,9.575,13.717t16.638,2.666l.042,0-.043.007a19.494,19.494,0,0,0-7.808,3.19,18.256,18.256,0,0,0-6.362,7.474q-2.354,4.842-1.268,12.243,1.663,11.324,10.16,10.152a26.2,26.2,0,0,1-10.979-.429,23.275,23.275,0,0,1-7.448-3.4l1.808,16.492q.738,6.433.864,19.8a224.818,224.818,0,0,1-2.2,30.978A186.811,186.811,0,0,1,940.94,603,123,123,0,0,1,926.3,632.028a80.208,80.208,0,0,1-21.577,21.459,69.7,69.7,0,0,1-28.968,10.792q-17.006,2.5-29.265-3.06a45.242,45.242,0,0,1-19.481-16.452,59.356,59.356,0,0,1-9.217-24.5,171.656,171.656,0,0,1-1.278-37.926" transform="translate(-816.009 -356.995)" fill="#0253b3"/>
    <path id="Path_4819" data-name="Path 4819" d="M1076.247,637.244s18.2-11.789,19.417-22.793c0,0,13.1,3.987-12.934,36.586Z" transform="translate(-844.552 -385.233)" fill="#0253b3"/>
    <path id="Path_4820" data-name="Path 4820" d="M1102.107,602.965" transform="translate(-847.388 -383.973)" fill="#f7941d"/>
    <path id="Path_4821" data-name="Path 4821" d="M1066.512,602.719" transform="translate(-843.484 -383.946)" fill="#f7941d"/>
    <path id="Path_4822" data-name="Path 4822" d="M1016.66,664.832a21.807,21.807,0,0,0,7.428.068,9.2,9.2,0,0,1,1.692-.1l.287-.215A27.491,27.491,0,0,1,1016.66,664.832Z" transform="translate(-838.017 -390.732)" fill="none"/>
    <path id="Path_4823" data-name="Path 4823" d="M1021.691,651.2a9.2,9.2,0,0,0-1.692.1,21.807,21.807,0,0,1-7.428-.068c-7.533-1.262-9.641-6.133-9.641-6.133l.005-.011a24.1,24.1,0,0,1-3.055-4.778,53.709,53.709,0,0,1-4.276-12.713q-1.449-6.929-2.389-13.333-3.538-24.1-5.15-42.108-1.605-17.939-1.441-29.651v-.089h-.008a1.875,1.875,0,0,0-3.67-.49h-.009c-.011.046-.021.092-.033.139-.005.024-.012.048-.018.073a130.542,130.542,0,0,0-3.319,19.046q-.3,3.833-.109,12.152t.992,19.65q.8,11.331,2.167,24.728t3.419,27.385q2.722,18.538,9.932,27.2t19.681,6.836a15,15,0,0,0,3.686-1.084l-12.934-7.566A47.445,47.445,0,0,1,1021.691,651.2Z" transform="translate(-833.928 -377.132)" fill="#0253b3"/>
    <path id="Path_4824" data-name="Path 4824" d="M1030.941,683.949q1.983-4.077,1.042-10.483-1.237-8.423-6.964-8.64a47.446,47.446,0,0,0-15.288,19.285l12.935,7.566a20.513,20.513,0,0,0,2.9-1.518A14.723,14.723,0,0,0,1030.941,683.949Z" transform="translate(-837.257 -390.758)" fill="#0253b3"/>
    <path id="Path_4825" data-name="Path 4825" d="M1015.472,664.105a14.11,14.11,0,0,1-5.009-1.979,20.446,20.446,0,0,1-4.627-4.165l-.005.011S1007.939,662.843,1015.472,664.105Z" transform="translate(-836.829 -390.005)"/>
    <path id="Path_4826" data-name="Path 4826" d="M1089.028,628.427s8.215-7,8.349-13.787C1097.377,614.64,1089.018,624.526,1089.028,628.427Z" transform="translate(-845.954 -385.254)" fill="#ef9b37"/>
    <path id="Path_4827" data-name="Path 4827" d="M1037.123,641.741s-2.6-10.735,0-15.788l-1.948,0-1.642-.2A31.26,31.26,0,0,0,1037.123,641.741Z" transform="translate(-839.861 -386.472)" opacity="0.2" style="mix-blend-mode: multiply;isolation: isolate"/>
    <path id="Path_4828" data-name="Path 4828" d="M1089.028,628.234s8.268-6.844,8.349-13.787c0,0-1.232-.509-2.273-.968-.545-.24-1.054-.491-1.27-.593C1093.343,612.655,1094.334,623.07,1089.028,628.234Z" transform="translate(-845.954 -385.061)" opacity="0.2" style="mix-blend-mode: multiply;isolation: isolate"/>
    <path id="Path_4829" data-name="Path 4829" d="M993.962,481.7s8.984.015,16.5-12.472c0,0,8.983,1.625,25.977,1.072s2.7,10.676,2.7,10.676-2.592,5.3-14.787,5.814-26.559-1.53-26.559-1.53l-3.5-.921Z" transform="translate(-835.527 -369.305)" fill="#0253b3"/>
    <path id="Path_4830" data-name="Path 4830" d="M1010.868,469.123s-5.088,9.217-13.232,11.807a30.176,30.176,0,0,0,10.437-12.668A20.14,20.14,0,0,0,1010.868,469.123Z" transform="translate(-835.93 -369.199)" fill="#404041" opacity="0.2" style="mix-blend-mode: multiply;isolation: isolate"/>
    <path id="Path_4831" data-name="Path 4831" d="M1021.066,437.766a16.346,16.346,0,0,0-6.242-.507c-3.356.411-10.886-3.473-11.759-4.29l2.552-2.737S1016.2,436.006,1021.066,437.766Z" transform="translate(-836.525 -365.028)" fill="#404041" opacity="0.2"/>
    <path id="Path_4832" data-name="Path 4832" d="M1044.781,445.33a19.821,19.821,0,0,1-.074,4.717s-3.062,1.084-11.3-3.332a12.958,12.958,0,0,0-6.968-6.852S1042.872,445.279,1044.781,445.33Z" transform="translate(-839.09 -366.084)" fill="#404041" opacity="0.2"/>
    <rect id="Rectangle_1540" data-name="Rectangle 1540" width="18.055" height="18.055" rx="2.226" transform="translate(233.56 196.234) rotate(-21.553)" fill="#ef9b37"/>
    <g id="Group_9700" data-name="Group 9700" transform="translate(162.679 126.262)">
      <path id="Path_4833" data-name="Path 4833" d="M1000.084,542.418c-.817-3.673-.134-5.458,2.637-7.192,19.688-12.319,39.613-24.232,60.1-35.184a1.685,1.685,0,0,1,.51-.092,5.11,5.11,0,0,1-1.756,6.589q-30.6,16.663-60.1,35.189C1001.087,541.973,1000.65,542.141,1000.084,542.418Z" transform="translate(-998.842 -498.936)" fill="#ef9b37"/>
      <path id="Path_4834" data-name="Path 4834" d="M999.323,543.643l-.255-1.149c-.893-4.012-.067-6.229,3.05-8.178C1025,520,1044.11,508.81,1062.272,499.1a1.726,1.726,0,0,1,.706-.18l.66-.11.4.582a6.032,6.032,0,0,1-2.132,7.836c-20.608,11.222-40.812,23.052-60.052,35.159a8.1,8.1,0,0,1-.96.494c-.159.073-.33.151-.515.242Zm63.362-42.662c-17.987,9.631-36.937,20.734-59.585,34.906-2.146,1.343-2.8,2.576-2.44,5.053.074-.039.143-.078.208-.119,19.273-12.128,39.511-23.977,60.153-35.219A4.19,4.19,0,0,0,1062.685,500.981Z" transform="translate(-998.729 -498.811)" fill="#ef9b37"/>
    </g>
    <path id="Path_4835" data-name="Path 4835" d="M1069.943,637.006c-19.913,14.872-33.653,20.837-43.043,22.523l-.287.215q5.725.218,6.964,8.64.942,6.406-1.043,10.483a14.721,14.721,0,0,1-5.37,6.211,20.507,20.507,0,0,1-2.9,1.518l.24.141s14.461-8.028,34.518-20.55,29.632-26.674,32.872-47.694A174.85,174.85,0,0,1,1069.943,637.006Z" transform="translate(-838.85 -385.676)" fill="#0253b3"/>
    <path id="Path_4836" data-name="Path 4836" d="M874.863,550.133l.07,0,0,0Z" transform="translate(-822.464 -378.178)" fill="#ef9b37"/>
    <path id="Path_4837" data-name="Path 4837" d="M883.274,582.892" transform="translate(-823.387 -381.771)"/>
    <path id="Path_4838" data-name="Path 4838" d="M837.437,534.243s7.336,11.685,16.073,14.868,5.324-7.644,5.324-7.644a120.816,120.816,0,0,1-10.573-9.075s5.614,9.989,5.659,10.571-8.492-6.906-12.18-11.679C841.74,531.284,836.908,529.116,837.437,534.243Z" transform="translate(-818.355 -376.061)" fill="#ef9b37"/>
    <path id="Path_4839" data-name="Path 4839" d="M896.737,525.576a26.3,26.3,0,0,1-11.852,4.66s-10.524,1.132-15.119,4.631a32.486,32.486,0,0,1-3.234,2.454c-.541.2-2.333.888-8.121-4.4s-7.731-7.855-9.2-8.641a2.573,2.573,0,0,0-3.658,1.681,2.518,2.518,0,0,0,.468,1.816c1.31,1.907,5.953,7.977,15.891,14.435a2.356,2.356,0,0,0,.354.193,8.641,8.641,0,0,0,7.087-.4,2.606,2.606,0,0,0,.75-.539c.93-.946,3.744-3.665,5.752-4.12,2.28-.515,13.591-2.5,15.06-2.76a2.331,2.331,0,0,0,.328-.083,29.6,29.6,0,0,0,9.379-5.353A7.257,7.257,0,0,1,896.737,525.576Z" transform="translate(-819.246 -375.314)" fill="#ef9b37"/>
    <path id="Path_4840" data-name="Path 4840" d="M841.361,557.69" transform="translate(-818.79 -379.007)" fill="#0253b3"/>
    <path id="Path_4841" data-name="Path 4841" d="M841.361,564.431s10.935-8.092,12.584-14c0,0-6.9-3.233-9.964-7.6,0,0,5.975,3.982-2.62,12.558Z" transform="translate(-818.79 -377.377)" fill="#ef9b37"/>
    <path id="Path_4842" data-name="Path 4842" d="M845.1,551.41s-3.74,8.327-3.735,13.962v-9.045Z" transform="translate(-818.79 -378.318)" fill="#0253b3"/>
    <path id="Path_4843" data-name="Path 4843" d="M854.4,550.544s-6.215-2.635-8.849-6.654c0,0,3.614,6.453,8.168,8.343Z" transform="translate(-819.25 -377.494)" opacity="0.3" style="mix-blend-mode: multiply;isolation: isolate"/>
    <path id="Path_4844" data-name="Path 4844" d="M849.6,532.585s6.486,9.825,11.036,11.083l-.462-2.008Z" transform="translate(-819.693 -376.254)" opacity="0.3" style="mix-blend-mode: multiply;isolation: isolate"/>
    <path id="Path_4845" data-name="Path 4845" d="M845.1,551.41a27.112,27.112,0,0,0-1.326,12.052l-2.409,1.91S841.231,559.882,845.1,551.41Z" transform="translate(-818.79 -378.318)" opacity="0.3" style="mix-blend-mode: multiply;isolation: isolate"/>
    <g id="Group_9703" data-name="Group 9703" transform="translate(28.11 108.665)">
      <g id="Group_9702" data-name="Group 9702">
        <g id="Group_9701" data-name="Group 9701">
          <path id="Path_4846" data-name="Path 4846" d="M898.115,484.444a25.192,25.192,0,0,0-39.592,17.994,16.365,16.365,0,0,1-5.122,10.291l-3.1,2.835a6.18,6.18,0,0,0-1.873,3.364c.069.071.14.147.188.2.137.1.276.191.41.3a4.857,4.857,0,0,1,.673.588,6.536,6.536,0,0,1,3.478,3.9c-.272-.818-.871.86-.339,1.592.292-.321.542-.4.826-.73l-2.49-1.651c-.781-.855,1.106-3.681,1.96-4.462l1.55-1.416h0a24.917,24.917,0,0,1,3.024-2.919h0a20.756,20.756,0,0,0,4.993-11.457,21.007,21.007,0,1,1,35.051,17.7,21.428,21.428,0,0,1-4.276,3.166c.063.273.094.405.154.678a2.488,2.488,0,0,1,.435,1.018c.108.55.242,1.074.385,1.6.229.137.357.089.579.242a24.864,24.864,0,0,0,5.558-3.6A25.236,25.236,0,0,0,898.115,484.444Z" transform="translate(-847.675 -479.13)" fill="#ef9b37"/>
          <path id="Path_4847" data-name="Path 4847" d="M894.883,527.993l-.343-.237c-.018-.013-.019-.013-.089-.032a1.7,1.7,0,0,1-.451-.186l-.24-.143-.073-.27c-.147-.539-.285-1.078-.4-1.644a1.8,1.8,0,0,0-.31-.737l-.089-.12-.305-1.335.471-.251a20.45,20.45,0,0,0,4.135-3.065,20.2,20.2,0,0,0,6.572-16.148,20.537,20.537,0,0,0-8.6-15.492,20.3,20.3,0,0,0-31.86,14.527,21.443,21.443,0,0,1-5.163,11.844l-.606.541a19.246,19.246,0,0,0-2.4,2.355l-.072.078-1.551,1.416a7.859,7.859,0,0,0-1.35,1.839,7.652,7.652,0,0,1,1.564,2.626c.006.018.013.035.019.053l-.361.124,1.23.815-.516.6a3.151,3.151,0,0,1-.53.476,2.09,2.09,0,0,0-.308.266l-.573.631-.5-.69a2.158,2.158,0,0,1-.335-1.448l-1.28-.873a2.15,2.15,0,0,1-.105-2.257,5.745,5.745,0,0,0-1.147-.7l-.207-.146a4.1,4.1,0,0,0-.575-.506c-.108-.083-.189-.139-.27-.2l-.252-.2-.431-.454.073-.355a6.884,6.884,0,0,1,2.084-3.737l3.1-2.835a15.669,15.669,0,0,0,4.9-9.85A25.886,25.886,0,0,1,898.428,483.8h0a26.1,26.1,0,0,1,10.918,19.7,24.561,24.561,0,0,1-14.093,24.3Zm-.7-3.951a3.241,3.241,0,0,1,.468,1.17c.08.409.176.8.279,1.193a23.214,23.214,0,0,0,5.094-3.332,24.387,24.387,0,0,0,7.934-19.493,24.725,24.725,0,0,0-10.343-18.658,24.5,24.5,0,0,0-38.495,17.5,17.076,17.076,0,0,1-5.345,10.732l-3.1,2.835a5.448,5.448,0,0,0-1.57,2.611c.085.06.171.121.255.187a5.129,5.129,0,0,1,.651.559,7.14,7.14,0,0,1,1.084.64,10.313,10.313,0,0,1,1.478-1.923l1.512-1.382a20.872,20.872,0,0,1,2.53-2.488l.539-.473a20.008,20.008,0,0,0,4.763-11.009A21.694,21.694,0,1,1,898.128,521a23.165,23.165,0,0,1-3.951,3.008Zm-42.594-1.495.143.094c-.05-.076-.1-.15-.153-.223A.441.441,0,0,0,851.591,522.547Z" transform="translate(-847.582 -479.047)" fill="#ef9b37"/>
        </g>
      </g>
    </g>
    <path id="Path_4848" data-name="Path 4848" d="M896.454,488.119A21.308,21.308,0,0,0,863,503.366,21.074,21.074,0,0,1,857.929,515a25.338,25.338,0,0,0-3.069,2.964l-1.574,1.439a9.6,9.6,0,0,0-1.7,2.393c1.461,1.424,3.618,3.722,7.375,7.155,5.877,5.37,7.7,4.672,8.245,4.468a32.946,32.946,0,0,0,3.283-2.49c4.665-3.552,15.348-4.7,15.348-4.7a26.7,26.7,0,0,0,12.032-4.731c.051.109.111.209.167.314.18-.159.363-.314.539-.475A21.356,21.356,0,0,0,896.454,488.119Z" transform="translate(-819.911 -370.949)" fill="#ef9b37"/>
    <path id="Path_4849" data-name="Path 4849" d="M846,527.336s-2.546-3.237,2.847-7.318l.288,8.083Z" transform="translate(-819.233 -374.875)" fill="#ef9b37"/>
    <path id="Path_4850" data-name="Path 4850" d="M850.866,518.673s14.064,16.523,21.365,20.739l1.662-1.6Z" transform="translate(-819.832 -374.728)" opacity="0.25" style="mix-blend-mode: multiply;isolation: isolate"/>
    <path id="Path_4851" data-name="Path 4851" d="M905.447,504.25a14.838,14.838,0,0,1,0,2.024c-.035.642-.11,1.277-.207,1.906-.082.63-.249,1.249-.371,1.868-.182.611-.351,1.221-.558,1.819a16.559,16.559,0,0,1-4,6.336,4.3,4.3,0,0,1-.68.634l-.72.586-.717.58-.788.475c-.531.3-1.033.652-1.579.91l-1.668.7a9.356,9.356,0,0,1-1.7.563l-1.718.467c-1.165.212-2.34.354-3.5.531,1.131-.329,2.264-.621,3.369-.977l1.605-.675a8.743,8.743,0,0,0,1.552-.751l1.478-.866c.477-.307.9-.7,1.346-1.034l.659-.523.575-.612.572-.605a3.451,3.451,0,0,0,.526-.638,14.248,14.248,0,0,0,2.714-5.883c.108-.531.179-1.069.267-1.6.03-.542.106-1.075.1-1.613a16.014,16.014,0,0,0-.037-1.6,11.7,11.7,0,0,0-.19-1.484l-.006-.03a1.858,1.858,0,0,1,3.635-.767A1.967,1.967,0,0,1,905.447,504.25Z" transform="translate(-823.822 -372.956)" fill="#fff" opacity="0.9"/>
    <path id="Path_4852" data-name="Path 4852" d="M1098.056,614.451" transform="translate(-846.944 -385.233)" fill="#ef9b37"/>
  </g>
</svg>
