<svg xmlns="http://www.w3.org/2000/svg" width="40.056" height="32.201" viewBox="0 0 40.056 32.201">
  <g id="no-sound" transform="translate(0 -50.201)">
    <path id="Path_4794" data-name="Path 4794" d="M333.779,180.344a1.173,1.173,0,0,0,1.66,0l4.982-4.982,4.982,4.982a1.174,1.174,0,0,0,1.66-1.66L342.08,173.7l4.982-4.982a1.174,1.174,0,1,0-1.66-1.66l-4.982,4.982-4.982-4.982a1.174,1.174,0,0,0-1.66,1.66l4.982,4.982-4.982,4.982A1.174,1.174,0,0,0,333.779,180.344Z" transform="translate(-307.349 -107.401)" fill="#fff"/>
    <path id="Path_4795" data-name="Path 4795" d="M20.482,50.479l-13.17,7.25H1.174A1.174,1.174,0,0,0,0,58.9V73.7a1.174,1.174,0,0,0,1.174,1.174H7.312l13.17,7.25a2.217,2.217,0,0,0,3.287-1.943V52.422A2.217,2.217,0,0,0,20.482,50.479Zm-18.135,9.6H6.44V72.527H2.347ZM21.422,79.962,8.787,73.007V59.6l12.635-6.955Z" fill="#fff"/>
  </g>
</svg>
