<svg xmlns="http://www.w3.org/2000/svg" width="544.159" height="453.282" viewBox="0 0 544.159 453.282">
  <path id="Path_150" data-name="Path 150" d="M556.11,354.92a53.224,53.224,0,0,1-1.56,8.7,74.632,74.632,0,0,1-7.86,18.78c-20.07,35-59.37,55.27-98.92,63.54s-80.38,6.47-120.73,8.32c-54.5,2.47-108.86,11.61-163.36,8.62A368.923,368.923,0,0,1,87.26,450.5c-120.37,0-61.52-183.82-54.6-253.51,3-30,6.48-61.49,23.61-86.33,20.27-29.37,56.16-44,91.27-50.4s71.24-6,106.16-13.37c57-12,112.19-44.27,169.74-35.07,56.45,9,102.26,62.77,102.23,119.94,0,40.13-18.21,80-7.76,120C527,286.45,559.61,317.17,556.11,354.92Z" transform="translate(-12.213 -10.192)" fill="#fff" opacity="0.497" style="isolation: isolate"/>
</svg>
