<svg xmlns="http://www.w3.org/2000/svg" width="78.649" height="15.001" viewBox="0 0 78.649 15.001">
  <path id="Path_155" data-name="Path 155" d="M177.475,393.355c-4.771.852-9.5,1.958-14.332,2.424-3.132.307-6.589.463-8.862,2.642a2.979,2.979,0,0,0-1.008,1.8c-.132,1.508,1.446,2.559,2.853,3.113,4.109,1.624,8.58,2.09,12.987,2.372,7.186.457,14.4.463,21.589.469l21.451.021c6.331,0,13.361-.257,17.9-4.676a5.6,5.6,0,0,0,1.839-3.2c.251-2.016-1.278-3.91-3.126-4.753-3.2-1.462-7.986-1.158-11.473-1.532-4.532-.5-9.092-.778-13.652-.833A139.651,139.651,0,0,0,177.475,393.355Z" transform="translate(-153.265 -391.196)" fill="#474b8c" opacity="0.24" style="isolation: isolate"/>
</svg>
