<svg xmlns="http://www.w3.org/2000/svg" width="49.931" height="34.688" viewBox="0 0 49.931 34.688">
  <path id="Path_165" data-name="Path 165" d="M175,115.039v-7.476a1.444,1.444,0,0,0-.848-1.31L152.119,96.135a1.488,1.488,0,0,0-1.241,0L128.85,106.253a1.436,1.436,0,0,0,0,2.62l7.963,3.657v16.713a1.457,1.457,0,0,0,1.469,1.445h26.434a1.457,1.457,0,0,0,1.469-1.445V112.529l5.874-2.7v5.207a4.328,4.328,0,0,0-2.874,4.821,4.418,4.418,0,0,0,8.685,0A4.328,4.328,0,0,0,175,115.039ZM163.247,127.8h-23.5V113.879l11.128,5.111a1.488,1.488,0,0,0,1.241,0l11.128-5.111ZM151.5,116.085l-18.555-8.522L151.5,99.041l18.555,8.522Zm22.029,4.486A1.446,1.446,0,1,1,175,119.125a1.457,1.457,0,0,1-1.469,1.445Z" transform="translate(-128.002 -96)" fill="#c0c5d8"/>
</svg>
