<svg xmlns="http://www.w3.org/2000/svg" width="536.29" height="99.854" viewBox="0 0 536.29 99.854">
  <path id="Path_151" data-name="Path 151" d="M554.55,363.62a74.63,74.63,0,0,1-7.86,18.78c-20.07,35-59.37,55.27-98.92,63.54s-80.38,6.47-120.73,8.32c-54.5,2.47-108.86,11.61-163.36,8.62A368.92,368.92,0,0,1,87.26,450.5c-16.73-4.56-51.3-10.5-61.42-26-6.33-9.67-7.37-27.79-7.58-43.06,3.79.6,7.55,1.5,10.85,1.81,11.2,1.08,22.54,1.15,33.77,1.5q35.68,1.14,71.41,1.53,142.22,1.51,284.23-9.36Q486.65,371.68,554.55,363.62Z" transform="translate(-18.26 -363.62)" fill="#474b8c" opacity="0.24" style="isolation: isolate"/>
</svg>
