<svg xmlns="http://www.w3.org/2000/svg" width="36.726" height="26.947" viewBox="0 0 36.726 26.947">
  <path id="Path_2287" data-name="Path 2287" d="M33.481,73.8A1.33,1.33,0,0,0,33,73.7a1.136,1.136,0,0,0-.859.363l-7.7,7.678V78.591a5.51,5.51,0,0,0-5.5-5.5H5.5A5.3,5.3,0,0,0,1.614,74.7,5.3,5.3,0,0,0,0,78.591V92.037a5.3,5.3,0,0,0,1.614,3.887A5.3,5.3,0,0,0,5.5,97.537H18.946a5.51,5.51,0,0,0,5.5-5.5V88.866l7.7,7.7a1.136,1.136,0,0,0,.859.363,1.333,1.333,0,0,0,.478-.1,1.142,1.142,0,0,0,.745-1.127V74.924A1.142,1.142,0,0,0,33.481,73.8Z" transform="translate(35.476 98.787) rotate(180)" fill="none" stroke="#fff" stroke-width="2.5"/>
</svg>
