<svg id="presentation" xmlns="http://www.w3.org/2000/svg" width="60" height="52.969" viewBox="0 0 60 52.969">
  <path id="Shape" d="M26.466,51.807,19.283,32.061H18.051L10.94,51.8a1.76,1.76,0,1,1-3.3-1.212l6.674-18.527H11.78A8.157,8.157,0,0,0,12.056,29l3.832-7.741a5.343,5.343,0,0,0-2.357-7.142A5.257,5.257,0,0,0,6.455,16.5L4.3,20.844,0,18.684V5.576A5.549,5.549,0,0,1,5.523,0h26.36a5.549,5.549,0,0,1,5.522,5.576v20.91a5.549,5.549,0,0,1-5.522,5.575H23.028l6.738,18.522a1.76,1.76,0,1,1-3.3,1.224Z" transform="translate(22.594)" fill="#7bec77"/>
  <path id="Path" d="M30.928,27.75a4.63,4.63,0,0,0,.047-2.817l4.362-8.807a1.783,1.783,0,0,0-.786-2.381,1.75,1.75,0,0,0-2.358.793L28.473,22.05c-2.224-1.118-5.6-2.814-8.324-4.18-2.532-1.271-4.34-2.411-7.423-2.411H11.172A7.61,7.61,0,0,0,17.119,12.6,7.687,7.687,0,1,0,3.516,7.73a7.737,7.737,0,0,0,2.081,5.3,7.6,7.6,0,0,0,5.574,2.433A11.227,11.227,0,0,0,0,26.737v5.7a5.581,5.581,0,0,0,3.766,5.287v9.919a1.766,1.766,0,0,0,1.758,1.775h11.3a1.766,1.766,0,0,0,1.758-1.775V27.707l5.628,2.841a4.8,4.8,0,0,0,6.716-2.776l.007-.021Z" transform="translate(0 3.549)" fill="#2dda28"/>
</svg>
