<svg id="procedure" xmlns="http://www.w3.org/2000/svg" width="60" height="60" viewBox="0 0 60 60">
  <path id="Shape" d="M1,42a1,1,0,0,1-1-1V13.5a13.5,13.5,0,0,1,27,0v5.2l3.832,5.747A1,1,0,0,1,30,26H27v7a1,1,0,0,1-1,1H13v7a1,1,0,0,1-1,1Z" transform="translate(0 18)" fill="#f7b500"/>
  <path id="Shape-2" data-name="Shape" d="M0,3A3,3,0,1,1,3,6,3,3,0,0,1,0,3Z" transform="translate(11 27)" fill="#f7b500"/>
  <path id="Shape-3" data-name="Shape" d="M6.991,15.859a1,1,0,0,1-.888-.542l-.6-1.156c-.09-.035-.18-.073-.269-.112l-1.24.4a1,1,0,0,1-.911-.158,7.961,7.961,0,0,1-1.517-1.517,1,1,0,0,1-.158-.91l.4-1.24c-.041-.09-.077-.179-.112-.269l-1.156-.6A1,1,0,0,1,0,8.868V6.991A1,1,0,0,1,.542,6.1L1.7,5.507c.035-.09.072-.18.112-.269L1.413,4a1,1,0,0,1,.158-.91A8.023,8.023,0,0,1,3.088,1.571,1,1,0,0,1,4,1.413l1.24.4c.089-.04.178-.077.268-.112L6.1.542A1,1,0,0,1,6.991,0H8.869a1,1,0,0,1,.888.542l.6,1.156c.09.035.18.073.268.112l1.24-.4a1,1,0,0,1,.912.158,8.018,8.018,0,0,1,1.516,1.517A1,1,0,0,1,14.447,4l-.4,1.24c.04.089.077.179.113.269l1.155.595a1,1,0,0,1,.542.889V8.868a1,1,0,0,1-.542.889l-1.156.595c-.035.09-.072.18-.112.269l.4,1.24a1,1,0,0,1-.157.91,7.98,7.98,0,0,1-1.519,1.517,1,1,0,0,1-.91.157l-1.239-.4c-.09.039-.178.076-.268.112l-.6,1.156a1,1,0,0,1-.889.542Z" transform="translate(6.07 22.07)" fill="#f7b500"/>
  <path id="Shape-4" data-name="Shape" d="M14,33H6a2.987,2.987,0,0,1-2.219-5,2.967,2.967,0,0,1,.146-4.159A14.879,14.879,0,0,0,2.071,17.7,11.645,11.645,0,0,1,0,11C0,4.935,4.487,0,10,0S20,4.935,20,11a11.636,11.636,0,0,1-2.069,6.7,14.875,14.875,0,0,0-1.857,6.139A2.967,2.967,0,0,1,16.22,28a2.987,2.987,0,0,1-2.206,5Z" transform="translate(35 5)" fill="#f7b500"/>
  <path id="Path" d="M0,6H2A4,4,0,0,1,6,2V0A6.007,6.007,0,0,0,0,6Z" transform="translate(39 9)" fill="#f7b500"/>
  <rect id="Rectangle" width="2" height="3" transform="translate(44)" fill="#f7b500"/>
  <rect id="Rectangle-2" data-name="Rectangle" width="3" height="2" transform="translate(57 12)" fill="#f7b500"/>
  <rect id="Rectangle-3" data-name="Rectangle" width="3" height="2" transform="translate(30 12)" fill="#f7b500"/>
  <rect id="Rectangle-4" data-name="Rectangle" width="2" height="3" transform="translate(33.686 5.1) rotate(-45)" fill="#f7b500"/>
  <rect id="Rectangle-5" data-name="Rectangle" width="3" height="2" transform="translate(52.781 5.808) rotate(-45)" fill="#f7b500"/>
  <rect id="Rectangle-6" data-name="Rectangle" width="2" height="2" transform="translate(29 29)" fill="#f7b500"/>
  <rect id="Rectangle-7" data-name="Rectangle" width="2" height="2" transform="translate(33 29)" fill="#f7b500"/>
  <rect id="Rectangle-8" data-name="Rectangle" width="2" height="2" transform="translate(33 33)" fill="#f7b500"/>
  <rect id="Rectangle-9" data-name="Rectangle" width="2" height="2" transform="translate(33 37)" fill="#f7b500"/>
  <rect id="Rectangle-10" data-name="Rectangle" width="2" height="2" transform="translate(33 41)" fill="#f7b500"/>
  <rect id="Rectangle-11" data-name="Rectangle" width="2" height="2" transform="translate(33 45)" fill="#f7b500"/>
  <rect id="Rectangle-12" data-name="Rectangle" width="2" height="2" transform="translate(33 49)" fill="#f7b500"/>
  <rect id="Rectangle-13" data-name="Rectangle" width="2" height="2" transform="translate(45 41)" fill="#f7b500"/>
  <rect id="Rectangle-14" data-name="Rectangle" width="2" height="2" transform="translate(45 45)" fill="#f7b500"/>
  <rect id="Rectangle-15" data-name="Rectangle" width="2" height="2" transform="translate(45 49)" fill="#f7b500"/>
  <rect id="Rectangle-16" data-name="Rectangle" width="2" height="2" transform="translate(37 49)" fill="#f7b500"/>
  <rect id="Rectangle-17" data-name="Rectangle" width="2" height="2" transform="translate(41 49)" fill="#f7b500"/>
</svg>
