<svg xmlns="http://www.w3.org/2000/svg" width="41.947" height="36.934" viewBox="0 0 41.947 36.934">
  <g id="Speech_Bubble_48_" transform="translate(0 -30.536)">
    <g id="Group_9699" data-name="Group 9699" transform="translate(0 30.536)">
      <path id="Path_4792" data-name="Path 4792" d="M6.105,67.47H3.133l2.1-2.1a7.112,7.112,0,0,0,2.031-4.206A16.018,16.018,0,0,1,.989,53.741a14.536,14.536,0,0,1-.42-9.314,18.235,18.235,0,0,1,6.987-9.755,22.83,22.83,0,0,1,13.487-4.136c6.4,0,11.787,1.838,15.59,5.314a15.951,15.951,0,0,1,3.979,18.273,16.408,16.408,0,0,1-3.988,5.55c-3.808,3.49-9.2,5.335-15.58,5.335a28.349,28.349,0,0,1-7.051-.9A11.014,11.014,0,0,1,6.105,67.47ZM21.043,33C10.863,33,4.616,39.07,2.941,45.087c-1.583,5.686.75,11.059,6.241,14.373l.614.37-.019.716a9.7,9.7,0,0,1-.98,4.018,8.722,8.722,0,0,0,3.857-2.639l.521-.615.772.231a25.466,25.466,0,0,0,7.1,1c12.67,0,18.441-7.672,18.441-14.8a13.541,13.541,0,0,0-4.512-10.078C31.63,34.613,26.814,33,21.043,33Z" transform="translate(0 -30.536)" fill="#fff"/>
    </g>
  </g>
</svg>
