<svg id="study" xmlns="http://www.w3.org/2000/svg" width="60" height="60" viewBox="0 0 60 60">
  <path id="Path" d="M10.547,0a10.606,10.606,0,0,0,0,21.211A10.606,10.606,0,0,0,10.547,0Z" transform="translate(19.453)" fill="#18a4e0"/>
  <path id="Path-2" data-name="Path" d="M14.085,0H7.054A15.762,15.762,0,0,0,0,1.731a44.108,44.108,0,0,1,10.569,4.38,44.11,44.11,0,0,1,10.569-4.38A15.762,15.762,0,0,0,14.085,0Z" transform="translate(19.431 21.211)" fill="#18a4e0"/>
  <path id="Path-3" data-name="Path" d="M3.516,0A3.516,3.516,0,0,0,0,3.516v7.031a3.516,3.516,0,0,0,7.031,0V3.516A3.516,3.516,0,0,0,3.516,0Z" transform="translate(52.969 31.758)" fill="#3491ff"/>
  <path id="Path-4" data-name="Path" d="M3.516,0A3.516,3.516,0,0,0,0,3.516v7.031a3.516,3.516,0,0,0,7.031,0V3.516A3.516,3.516,0,0,0,3.516,0Z" transform="translate(0 31.758)" fill="#3491ff"/>
  <path id="Path-5" data-name="Path" d="M1.758,0A1.757,1.757,0,0,0,0,1.758V3.516a7.038,7.038,0,0,1,7.031,7.031v7.031A7.038,7.038,0,0,1,0,24.609v1.758a1.757,1.757,0,0,0,1.758,1.758c9.012,0,16.218,2.846,22.969,7.148V5.695C17.945,1.806,10.653,0,1.758,0Z" transform="translate(3.516 24.727)" fill="#1bbbff"/>
  <path id="Path-6" data-name="Path" d="M24.727,3.516V1.758A1.757,1.757,0,0,0,22.969,0C14.074,0,6.782,1.806,0,5.695V35.273c6.751-4.3,13.957-7.148,22.969-7.148a1.757,1.757,0,0,0,1.758-1.758V24.609A7.038,7.038,0,0,1,17.7,17.578V10.547A7.038,7.038,0,0,1,24.727,3.516Z" transform="translate(31.758 24.727)" fill="#1bbbff"/>
</svg>
