<svg xmlns="http://www.w3.org/2000/svg" width="46.2" height="16.714" viewBox="0 0 46.2 16.714">
  <g id="telephone-handler" transform="translate(1.008 -9.738)">
    <path id="Path_4793" data-name="Path 4793" d="M0,20.409l.027,3.62,0,.005a1.417,1.417,0,0,0,1.437,1.41l.01.005,10.281-.082a1.413,1.413,0,0,0,1.4-1.432l-.029-3.624-.5.007c.156-1.5,1.982-1.859,5.623-2.261l8.762-.076c2.106.2,4.148.583,4.3,2.22H31.03l.029,3.62v.005A1.418,1.418,0,0,0,32.5,25.24l.008.007,10.279-.085a1.41,1.41,0,0,0,1.4-1.429l-.03-3.624-.372,0c-.362-2.2-3.995-9.307-21.158-9.373C4.82,10.674.651,18.045.434,20.406Z" fill="none" stroke="#fff" stroke-width="2"/>
  </g>
</svg>
