<svg id="undraw_video_influencer_9oyy" xmlns="http://www.w3.org/2000/svg" width="279.489" height="161" viewBox="0 0 279.489 161">
  <path id="Path_85" data-name="Path 85" d="M404.874,393.223l-17.822,8.435,15.773-11.794a89,89,0,0,0-8.612-11.333l-77.292,19.211,69.816-26.633a89,89,0,0,0-10.138-7.728l-117.775,18.97a88.266,88.266,0,0,0-19.331,55.083H416.776A88.218,88.218,0,0,0,404.874,393.223Z" transform="translate(-208.441 -308.997)" fill="#f2f2f2"/>
  <path id="Path_86" data-name="Path 86" d="M414.5,324.506A88.7,88.7,0,0,0,307.554,347.5C335.4,341.395,383.875,330.834,414.5,324.506Z" transform="translate(-255.982 -275.598)" fill="#f2f2f2"/>
  <path id="Path_87" data-name="Path 87" d="M529.335,311.121c-3.034,8.983-7.686,17.168-17.168,17.168s-16.633-7.7-17.168-17.168c-.683-12.1,7.468-17.218,17.168-17.168C523.626,294.012,532.935,300.46,529.335,311.121Z" transform="translate(-386.884 -260.501)" fill="#2f2e41"/>
  <rect id="Rectangle_34" data-name="Rectangle 34" width="28.081" height="40.923" transform="translate(111.119 48.336)" fill="#2f2e41"/>
  <path id="Path_88" data-name="Path 88" d="M534.61,408.329s.9,12.874-1.2,14.97,18.562,3.892,18.263,1.5-4.192-17.963-2.994-21.257S534.61,408.329,534.61,408.329Z" transform="translate(-413.64 -336.495)" fill="#ffb8b8"/>
  <path id="Path_89" data-name="Path 89" d="M534.61,408.329s.9,12.874-1.2,14.97,18.562,3.892,18.263,1.5-4.192-17.963-2.994-21.257S534.61,408.329,534.61,408.329Z" transform="translate(-413.64 -336.495)" opacity="0.1"/>
  <path id="Path_90" data-name="Path 90" d="M404.341,488.873l-10.757,36.376-.431,1.465h-18.1c7.2-22.3,25.009-55.174,25.009-55.174l2.78-.63Z" transform="translate(-303.128 -384.106)" fill="#0253b3"/>
  <path id="Path_91" data-name="Path 91" d="M404.341,488.873l-10.757,36.376-.431,1.465h-18.1c7.2-22.3,25.009-55.174,25.009-55.174l2.78-.63Z" transform="translate(-303.128 -384.106)" opacity="0.1"/>
  <circle id="Ellipse_1" data-name="Ellipse 1" cx="13.473" cy="13.473" r="13.473" transform="translate(111.09 49.379)" fill="#ffb8b8"/>
  <path id="Path_92" data-name="Path 92" d="M543.584,454.02s-4.79,4.491-10.179,3.593-7.651-7.452-7.651-7.452l-5.222,3.859S519.034,464.8,525.92,466s16.766,1.5,18.862,0S543.584,454.02,543.584,454.02Z" transform="translate(-404.65 -369.613)" fill="#3f3d56"/>
  <path id="Path_93" data-name="Path 93" d="M500.9,473.279l-.859,2.792-12.129,39.545h-52.2a12.229,12.229,0,0,0,.244-1.465c.675-5.629.277-19.83.277-20.806,0-1.2,5.086-30.837,6.289-32.936a1.947,1.947,0,0,1,.714-.6,36.649,36.649,0,0,1,7.812-2.493s0,0,.006,0c1.86-.452,3.8-.868,5.563-1.221h0c1.728-.347,3.277-.63,4.411-.817a18.057,18.057,0,0,1,1.848-.256c.277,0,.479.329.615.832a22.947,22.947,0,0,1,.28,5.153,9.1,9.1,0,0,0,1.345,1.26,17.085,17.085,0,0,0,3.757,2.24,22.286,22.286,0,0,0,3.564,1.215h0a26.038,26.038,0,0,0,3.9.678,12.047,12.047,0,0,0,3.226-.063h.006a5.757,5.757,0,0,0,4.881-4.07c.1-.286.172-.561.238-.811,0,0,0-.009,0-.012.2-.769.283-1.309.495-1.3h0c.546.051,7.429,5.952,11.9,9.826,2.122,1.836,3.7,3.223,3.8,3.307Z" transform="translate(-345.499 -373.007)" fill="#0253b3"/>
  <path id="Path_94" data-name="Path 94" d="M609.587,515.955,597.457,555.5H592.54a3.236,3.236,0,0,0,.54-2.213c-.157-1.1,3.259-12.346,6.548-22.808,2.991-9.506,5.876-18.358,5.876-18.358l2.843,1.345S608.857,514.426,609.587,515.955Z" transform="translate(-455.045 -412.891)" opacity="0.1"/>
  <path id="Path_95" data-name="Path 95" d="M622.624,547.28c-.591.148-.528,1.9-.561,3.714H598.83a3.425,3.425,0,0,0,.742-2.514c-.154-1.058,2.138-11.969,4.45-22.507,1.818-8.333,3.651-16.435,4.287-19.254l.241-1.049.274.13.006,0,6,2.852.006,0s9.28,17.668,6.289,21.859-3,4.191-1.8,6.289S623.818,546.981,622.624,547.28Z" transform="translate(-459.438 -408.386)" fill="#0253b3"/>
  <circle id="Ellipse_2" data-name="Ellipse 2" cx="6.777" cy="6.777" r="6.777" transform="translate(118.506 23.513)" fill="#2f2e41"/>
  <path id="Path_96" data-name="Path 96" d="M521.921,255.777a6.777,6.777,0,0,1,6.1-6.742c-.222-.022-.448-.034-.677-.034a6.777,6.777,0,1,0,0,13.553c.229,0,.455-.012.678-.034a6.777,6.777,0,0,1-6.1-6.742Z" transform="translate(-404.77 -229.101)" fill="#2f2e41"/>
  <path id="Path_97" data-name="Path 97" d="M498.168,332.314s-.141-.788-5.676,1.288-8.852,17.39-6.084,26.383c1.115,3.624.208,6.237-1.273,8.066-5.556,6.861-3.369,17.166,4.724,20.694q.343.149.7.3l3.459,2.075a15.819,15.819,0,0,1-2.2-13.223,38.051,38.051,0,0,0,.687-19.479c-.253-1.087-.541-2.207-.867-3.35-2.767-9.685-1.421-8.566,8.264-18.251a61.557,61.557,0,0,0,10.377,6.226c4.842,2.075,8.993,4.151,5.534,11.068s-11.76,13.144-6.226,22.137,6.226,5.534,5.534,8.993h0l-.692,3.459,4.151-4.151-2.767,5.534s8.993,0,11.76-6.918l1.384,1.384s5.534-9.685-4.842-18.678c0,0-3.459-2.075,1.383-8.993s1.123-21.791-5.1-24.558S498.168,332.314,498.168,332.314Z" transform="translate(-377.871 -286.437)" fill="#2f2e41"/>
  <path id="Path_98" data-name="Path 98" d="M386.443,296.659l-11.527,19.965h2.694v2.694l13.1-22.659Z" transform="translate(-261.88 -207.217)" fill="#3f3d56"/>
  <rect id="Rectangle_35" data-name="Rectangle 35" width="47" height="19" transform="translate(228.244 128.5)" fill="#f2f2f2"/>
  <rect id="Rectangle_36" data-name="Rectangle 36" width="34.974" height="3.015" transform="translate(234.113 152.86)" fill="#f2f2f2"/>
  <rect id="Rectangle_37" data-name="Rectangle 37" width="34.974" height="2.412" transform="translate(234.113 158.287)" fill="#f2f2f2"/>
  <circle id="Ellipse_3" data-name="Ellipse 3" cx="1" cy="1" r="1" transform="translate(4.244 2.5)" fill="#0253b3"/>
  <ellipse id="Ellipse_4" data-name="Ellipse 4" cx="1.5" cy="1" rx="1.5" ry="1" transform="translate(6.244 2.5)" fill="#0253b3"/>
  <ellipse id="Ellipse_5" data-name="Ellipse 5" cx="1.5" cy="1" rx="1.5" ry="1" transform="translate(10.244 2.5)" fill="#0253b3"/>
  <path id="Path_99" data-name="Path 99" d="M415.989,344H136.5V183H415.989ZM137.1,343.4H415.386V183.6H137.1Z" transform="translate(-136.5 -183)" fill="#2f2e41"/>
  <rect id="Rectangle_38" data-name="Rectangle 38" width="278.886" height="0.603" transform="translate(0.301 6.056)" fill="#2f2e41"/>
  <rect id="Rectangle_39" data-name="Rectangle 39" width="9" transform="translate(4.244 11.5)" fill="#2f2e41"/>
  <rect id="Rectangle_40" data-name="Rectangle 40" width="9" transform="translate(4.244 13.5)" fill="#2f2e41"/>
  <rect id="Rectangle_41" data-name="Rectangle 41" width="9" transform="translate(4.244 16.5)" fill="#2f2e41"/>
  <path id="Path_100" data-name="Path 100" d="M515.657,225.427H403.5V220H515.657Zm-111.554-.6H515.054V220.6H404.1Z" transform="translate(-323 -208.845)" fill="#2f2e41"/>
  <path id="Path_101" data-name="Path 101" d="M757.706,225.912a1.206,1.206,0,1,1,1.206-1.206A1.206,1.206,0,0,1,757.706,225.912Zm0-1.809a.6.6,0,1,0,.6.6A.6.6,0,0,0,757.706,224.1Z" transform="translate(-569.571 -211.289)" fill="#2f2e41"/>
  <rect id="Rectangle_42" data-name="Rectangle 42" width="0.603" height="1.655" transform="translate(188.546 14.29) rotate(-45.868)" fill="#2f2e41"/>
  <path id="Path_102" data-name="Path 102" d="M985.53,225.427H979.5V220h6.03Zm-5.427-.6h4.824V220.6H980.1Z" transform="translate(-725.337 -208.845)" fill="#2f2e41"/>
  <path id="Path_103" data-name="Path 103" d="M1010.53,225.427h-6.03V220h6.03Zm-5.427-.6h4.824V220.6H1005.1Z" transform="translate(-742.8 -208.845)" fill="#2f2e41"/>
  <path id="Path_104" data-name="Path 104" d="M1035.53,225.427h-6.03V220h6.03Zm-5.427-.6h4.824V220.6H1030.1Z" transform="translate(-760.262 -208.845)" fill="#2f2e41"/>
  <rect id="Rectangle_43" data-name="Rectangle 43" width="5" height="5" transform="translate(201.244 146.5)" fill="#ff6584"/>
  <rect id="Rectangle_44" data-name="Rectangle 44" width="5" height="5" transform="translate(208.244 146.5)" fill="#f2f2f2"/>
  <rect id="Rectangle_45" data-name="Rectangle 45" width="5" height="5" transform="translate(216.244 146.5)" fill="#f2f2f2"/>
  <path id="Path_105" data-name="Path 105" d="M392.122,385.981H186.5V269H392.122Zm-205.019-.6H391.519V269.6H187.1Z" transform="translate(-171.425 -243.071)" fill="#2f2e41"/>
  <path id="Path_106" data-name="Path 106" d="M278.636,621.185v2.833l-4.705-2.872a.165.165,0,0,0-.249.142V627.5a.165.165,0,0,0,.249.142l4.705-2.872V627.6a.083.083,0,0,0,.082.082h1.46a.083.083,0,0,0,.082-.082v-6.414a.082.082,0,0,0-.082-.082h-1.46A.082.082,0,0,0,278.636,621.185Z" transform="translate(-232.322 -489.016)" fill="#3f3d56"/>
  <path id="Path_107" data-name="Path 107" d="M245.069,627.681h-1.312a.165.165,0,0,1-.167-.164v-6.249a.165.165,0,0,1,.167-.164h1.312a.165.165,0,0,1,.167.164v6.249a.165.165,0,0,1-.167.164Zm3.618,0h-1.311a.165.165,0,0,1-.167-.164v-6.249a.165.165,0,0,1,.167-.164h1.311a.165.165,0,0,1,.167.164v6.249a.165.165,0,0,1-.166.164Z" transform="translate(-211.303 -489.016)" fill="#3f3d56"/>
  <path id="Path_108" data-name="Path 108" d="M215.5,621.279v6.237a.161.161,0,0,0,.241.148l4.944-3.118a.177.177,0,0,0,0-.294l-4.944-3.118a.159.159,0,0,0-.241.146Z" transform="translate(-191.681 -489.021)" fill="#0253b3"/>
  <rect id="Rectangle_46" data-name="Rectangle 46" width="186.024" height="1.206" transform="translate(24.874 127.835)" fill="#2f2e41"/>
  <rect id="Rectangle_47" data-name="Rectangle 47" width="32.411" height="1.206" transform="translate(24.874 127.835)" fill="#0253b3"/>
  <rect id="Rectangle_48" data-name="Rectangle 48" width="85" height="2" transform="translate(15.244 147.5)" fill="#f2f2f2"/>
  <rect id="Rectangle_49" data-name="Rectangle 49" width="19" height="3" transform="translate(15.244 154.5)" fill="#f2f2f2"/>
  <rect id="Rectangle_50" data-name="Rectangle 50" width="47" height="18" transform="translate(228.244 32.5)" fill="#f2f2f2"/>
  <rect id="Rectangle_51" data-name="Rectangle 51" width="34.974" height="3.015" transform="translate(234.113 55.777)" fill="#f2f2f2"/>
  <rect id="Rectangle_52" data-name="Rectangle 52" width="34.974" height="3.015" transform="translate(234.113 61.204)" fill="#f2f2f2"/>
  <rect id="Rectangle_53" data-name="Rectangle 53" width="34.974" height="3.015" transform="translate(234.113 66.631)" fill="#f2f2f2"/>
  <rect id="Rectangle_54" data-name="Rectangle 54" width="47" height="19" transform="translate(228.244 80.5)" fill="#f2f2f2"/>
  <rect id="Rectangle_55" data-name="Rectangle 55" width="34.974" height="3.015" transform="translate(234.113 104.318)" fill="#f2f2f2"/>
  <rect id="Rectangle_56" data-name="Rectangle 56" width="34.974" height="3.015" transform="translate(234.113 109.745)" fill="#f2f2f2"/>
  <rect id="Rectangle_57" data-name="Rectangle 57" width="34.974" height="3.015" transform="translate(234.113 115.172)" fill="#f2f2f2"/>
</svg>
