<svg xmlns="http://www.w3.org/2000/svg" width="128.112" height="269.64" viewBox="0 0 128.112 269.64">
  <g id="undraw_spread_love_r9jb" transform="translate(-259.163 -128.341)">
    <ellipse id="Ellipse_31" data-name="Ellipse 31" cx="44.346" cy="6.855" rx="44.346" ry="6.855" transform="translate(280.079 303.871)" fill="#0253b3"/>
    <path id="Path_161" data-name="Path 161" d="M569.876,471.164l44.681-51.114a35.6,35.6,0,1,0-50.891-49.782,35.6,35.6,0,0,0-49.782,50.891l49.71,50" transform="translate(-244.016 -221.149)" fill="#0253b3"/>
    <path id="Path_163" data-name="Path 163" d="M577.876,458.164l44.681-51.114a35.6,35.6,0,1,0-50.891-49.782,35.6,35.6,0,1,0-49.782,50.891l49.71,50" transform="translate(-246.433 -217.223)" fill="none" stroke="#3f3d56" stroke-miterlimit="10" stroke-width="2"/>
    <ellipse id="Ellipse_33" data-name="Ellipse 33" cx="44.346" cy="6.855" rx="44.346" ry="6.855" transform="translate(285.741 298.174)" fill="none" stroke="#3f3d56" stroke-miterlimit="10" stroke-width="2"/>
    <ellipse id="Ellipse_34" data-name="Ellipse 34" cx="34.911" cy="5.396" rx="34.911" ry="5.396" transform="translate(290.458 347.855)" fill="#0253b3"/>
    <ellipse id="Ellipse_35" data-name="Ellipse 35" cx="23.588" cy="3.646" rx="23.588" ry="3.646" transform="translate(301.78 390.688)" fill="#0253b3"/>
    <ellipse id="Ellipse_36" data-name="Ellipse 36" cx="34.911" cy="5.396" rx="34.911" ry="5.396" transform="translate(295.176 343.047)" fill="none" stroke="#3f3d56" stroke-miterlimit="10" stroke-width="2"/>
    <ellipse id="Ellipse_37" data-name="Ellipse 37" cx="23.588" cy="3.646" rx="23.588" ry="3.646" transform="translate(306.498 387.07)" fill="none" stroke="#3f3d56" stroke-miterlimit="10" stroke-width="2"/>
  </g>
</svg>
